<?xml version="1.0" encoding="UTF-8"?>
<svg version="1.1" xmlns="http://www.w3.org/2000/svg" width="768" height="768">
<path d="M0 0 C253.44 0 506.88 0 768 0 C768 253.44 768 506.88 768 768 C514.56 768 261.12 768 0 768 C0 514.56 0 261.12 0 0 Z " fill="#F6DE1D" transform="translate(0,0)"/>
<path d="M0 0 C1.09495033 -0.00855011 1.09495033 -0.00855011 2.21202087 -0.01727295 C3.74899886 -0.0266542 5.28599633 -0.03322928 6.82299805 -0.03710938 C9.12261038 -0.04675034 11.42130203 -0.07781218 13.72070312 -0.109375 C23.56947906 -0.18007662 32.51643728 0.82631938 42.08984375 3.203125 C43.29870239 3.50138184 43.29870239 3.50138184 44.53198242 3.80566406 C72.94441438 11.33494145 93.3683326 29.6839269 108.86328125 53.984375 C110.08984375 56.203125 110.08984375 56.203125 110.08984375 58.203125 C108.46704102 59.46142578 108.46704102 59.46142578 106.15625 60.8984375 C105.29136963 61.44185791 104.42648926 61.98527832 103.53540039 62.54516602 C102.10828735 63.42773071 102.10828735 63.42773071 100.65234375 64.328125 C98.64163181 65.58937313 96.63122743 66.8511117 94.62109375 68.11328125 C93.55890625 68.77730957 92.49671875 69.44133789 91.40234375 70.12548828 C85.7985451 73.64025291 80.22542977 77.2023892 74.65234375 80.765625 C73.60570557 81.43158691 72.55906738 82.09754883 71.48071289 82.78369141 C67.25594685 85.48148721 63.07495972 88.17195631 59.0546875 91.16796875 C56.08984375 93.203125 56.08984375 93.203125 53.08984375 93.203125 C51.58203125 91.1484375 51.58203125 91.1484375 49.96484375 88.328125 C43.04011529 77.07181954 35.49759844 69.57549689 22.9296875 65.0703125 C17.99382601 63.95560116 13.32186474 63.83500233 8.27734375 63.828125 C6.87645508 63.79138672 6.87645508 63.79138672 5.44726562 63.75390625 C-3.36653127 63.71720758 -11.77690378 66.06345519 -18.3046875 72.265625 C-24.46136355 79.69557955 -26.83512181 87.21965248 -26.359375 96.80859375 C-25.00234126 107.06304872 -20.88216685 114.5262816 -12.73974609 120.90283203 C-6.64516498 125.23348985 -0.42761447 128.66832924 6.33984375 131.828125 C7.40614014 132.3339209 8.47243652 132.8397168 9.57104492 133.36083984 C18.10330109 137.36857299 26.73909964 141.11595217 35.40234375 144.828125 C71.68955899 160.38429441 109.74519806 179.44373202 125.36279297 218.21777344 C133.25781478 239.77664428 135.023054 268.44205911 127.08984375 290.203125 C126.87021973 290.83702148 126.6505957 291.47091797 126.42431641 292.12402344 C117.90032901 316.55583443 100.90141991 334.58100783 77.6796875 345.859375 C45.78571114 359.95457087 10.28710151 363.34483392 -23.91015625 356.203125 C-24.72887207 356.03683594 -25.54758789 355.87054687 -26.39111328 355.69921875 C-49.87733496 350.79015751 -70.71015386 340.91423817 -88.91015625 325.203125 C-89.71582031 324.54183594 -90.52148438 323.88054687 -91.3515625 323.19921875 C-103.44667237 312.92121459 -112.90740157 299.39047489 -119.91015625 285.203125 C-108.05429075 278.15481116 -96.1662438 271.16438893 -84.22265625 264.265625 C-83.16191895 263.65195068 -82.10118164 263.03827637 -81.00830078 262.40600586 C-74.36055523 258.57381905 -67.66388071 254.84527333 -60.91015625 251.203125 C-60.30429687 252.08613281 -59.6984375 252.96914063 -59.07421875 253.87890625 C-44.72693491 274.54744647 -28.51367386 289.09153659 -3.09863281 293.88232422 C15.03507906 296.54047877 33.06927143 293.37805343 48.15234375 282.79296875 C53.68997216 278.24898737 56.75285401 272.18632526 58.08984375 265.203125 C58.89818468 256.69582962 58.65051007 249.55719944 54.08984375 242.203125 C53.67734375 241.51734375 53.26484375 240.8315625 52.83984375 240.125 C40.28009225 221.42809719 8.07647961 212.51559315 -11.64282227 203.97021484 C-43.59684322 190.09028588 -77.28790519 171.75068763 -90.828125 137.48828125 C-100.56196228 111.62975353 -101.95201104 81.57082439 -90.703125 55.90625 C-79.57864881 32.08870255 -59.30166963 15.264118 -35.04101562 5.94628906 C-23.7925115 2.02323148 -11.89045466 0.07461648 0 0 Z " fill="#000000" transform="translate(576.91015625,348.796875)"/>
<path d="M0 0 C23.76 0 47.52 0 72 0 C72.04415338 32.85011773 72.08105763 65.70020649 72.10213066 98.550345 C72.10463185 102.4352561 72.10722051 106.32016713 72.10986328 110.20507812 C72.1103879 110.978441 72.11091252 111.75180387 72.11145304 112.54860198 C72.12013775 125.04406494 72.13589699 137.53950936 72.15430559 150.03496134 C72.17305861 162.87197832 72.18412811 175.70898563 72.18817699 188.54601574 C72.19091088 196.45675041 72.19952182 204.36743264 72.21583293 212.27815115 C72.22773 218.36074518 72.22889779 224.44329482 72.22621536 230.52590179 C72.22676263 233.00897289 72.23070111 235.4920461 72.23841095 237.97510529 C72.33776524 271.64356354 67.56742555 303.01547045 43 328 C42.31292969 328.69996094 41.62585938 329.39992188 40.91796875 330.12109375 C27.45122977 342.93823122 8.99397657 349.64556733 -9 353 C-10.00289062 353.20496094 -11.00578125 353.40992188 -12.0390625 353.62109375 C-44.63294535 359.37062296 -79.79689707 353.29709752 -107.125 334.375 C-121.86194892 323.66693262 -136.38317622 308.23251063 -143 291 C-142.80151367 289.01855469 -142.80151367 289.01855469 -142 287 C-140.3112793 285.62231445 -140.3112793 285.62231445 -138.07421875 284.36328125 C-137.22786865 283.87649902 -136.38151855 283.3897168 -135.50952148 282.88818359 C-134.57825439 282.36820801 -133.6469873 281.84823242 -132.6875 281.3125 C-130.69153679 280.16740423 -128.69680718 279.02015634 -126.703125 277.87109375 C-125.09147461 276.94659424 -125.09147461 276.94659424 -123.44726562 276.00341797 C-117.22209483 272.38558854 -111.083857 268.62461878 -104.9375 264.875 C-103.13290833 263.77611857 -101.32804299 262.67768783 -99.52313232 261.57933044 C-97.94463396 260.61847487 -96.36670577 259.65668277 -94.78881836 258.69482422 C-93.8685083 258.13553223 -92.94819824 257.57624023 -92 257 C-91.11642822 256.43168457 -90.23285645 255.86336914 -89.32250977 255.27783203 C-87 254 -87 254 -84 254 C-82.48959458 256.24741048 -81.17495758 258.44729153 -79.875 260.8125 C-72.87251092 272.92150769 -65.48830703 282.49200118 -52.30078125 288.16015625 C-41.07687934 291.01594194 -26.25744014 290.48920519 -16 285 C-7.36972591 279.78405994 -4.71226339 271.77294451 -1.95441628 262.47478485 C-0.70920594 257.40031814 -0.71126281 252.44543071 -0.7215271 247.24328613 C-0.7128385 245.65269827 -0.7128385 245.65269827 -0.70397437 244.02997732 C-0.68701699 240.48935478 -0.68410149 236.94886294 -0.68115234 233.40820312 C-0.67185124 230.86518028 -0.6616823 228.32216048 -0.65071106 225.77914429 C-0.62906741 220.31063223 -0.61344385 214.84215607 -0.60334396 209.37361145 C-0.58873094 201.46711998 -0.56318682 193.56069323 -0.53501268 185.65423983 C-0.48959227 172.82517445 -0.45295786 159.99609973 -0.421875 147.16699219 C-0.39166997 134.70799114 -0.35731075 122.24901291 -0.31738281 109.79003906 C-0.31492126 109.02149599 -0.31245972 108.25295292 -0.30992357 107.46112067 C-0.29754859 103.60539514 -0.28509213 99.74966988 -0.27259517 95.89394474 C-0.16909852 63.92932355 -0.08149524 31.96468674 0 0 Z " fill="#000000" transform="translate(346,353)"/>
</svg>
