<?xml version="1.0" encoding="UTF-8"?>
<svg version="1.1" xmlns="http://www.w3.org/2000/svg" width="1969" height="2048">
<path d="M0 0 C4.93253462 2.74188789 9.80453333 5.568923 14.640625 8.4765625 C20.38802807 11.92823128 26.19420362 15.27566535 32.00390625 18.62109375 C33.10331543 19.25499023 34.20272461 19.88888672 35.33544922 20.54199219 C44.07442688 25.57622584 52.83276597 30.57613082 61.59365845 35.57208252 C70.63447966 40.72933818 79.63584537 45.95105485 88.61816406 51.20947266 C96.24046403 55.66525719 103.89671936 60.06006521 111.56640625 64.43359375 C126.04090994 72.68775011 140.47362471 81.01326747 154.90039062 89.35058594 C158.122089 91.21212047 161.34411704 93.07308214 164.56640625 94.93359375 C165.63246094 95.54912109 166.69851563 96.16464844 167.796875 96.79882812 C176.38136222 101.75062417 184.98720918 106.66434243 193.59613037 111.57345581 C202.63612333 116.73025983 211.63665946 121.95153144 220.61816406 127.20947266 C228.24046403 131.66525719 235.89671936 136.06006521 243.56640625 140.43359375 C258.04090994 148.68775011 272.47362471 157.01326747 286.90039062 165.35058594 C290.122089 167.21212047 293.34411704 169.07308214 296.56640625 170.93359375 C297.63246094 171.54912109 298.69851563 172.16464844 299.796875 172.79882812 C307.19921601 177.06872591 314.61633202 181.31207969 322.03964233 185.54534912 C332.46188216 191.48889538 342.8589267 197.4730159 353.20922852 203.54125977 C357.84334605 206.25764935 362.485243 208.95587912 367.16015625 211.6015625 C368.02181396 212.09164795 368.88347168 212.5817334 369.77124023 213.08666992 C371.3583333 213.98767182 372.94870026 214.88294664 374.54321289 215.77075195 C383.93619747 221.11883926 391.49096808 227.8279665 394.69140625 238.49609375 C395.86586499 245.69737256 395.82945832 252.8154367 395.81445408 260.09931183 C395.81519443 261.48662191 395.81637376 262.87393181 395.81795058 264.2612412 C395.82101464 268.07587126 395.81784859 271.89047459 395.81367244 275.70510266 C395.81023461 279.85412381 395.81260974 284.00314229 395.81424993 288.15216398 C395.81632319 295.42446918 395.81468071 302.69676619 395.81061172 309.96907043 C395.80457809 320.78273105 395.80427579 331.5963865 395.80515371 342.41004849 C395.80646787 360.60011385 395.80312522 378.79017557 395.79713631 396.98023987 C395.791221 414.9928845 395.78737071 433.00552762 395.78628349 451.01817322 C395.78621475 452.1377915 395.78614601 453.25740978 395.78607519 454.41095589 C395.78573686 460.09684051 395.78543548 465.78272513 395.78514832 471.46860975 C395.78304743 511.75055857 395.77630876 552.03250542 395.7668457 592.31445312 C395.7576626 631.44986968 395.75057833 670.5852857 395.74633789 709.72070312 C395.7461406 711.52992058 395.7461406 711.52992058 395.74593933 713.37568787 C395.74462082 725.48819805 395.743345 737.60070823 395.74210047 749.71321842 C395.7395642 774.3881987 395.73674294 799.06317895 395.73374939 823.73815918 C395.7336121 824.87269591 395.73347481 826.00723264 395.73333336 827.17614927 C395.72413138 902.94946492 395.70828603 978.72277947 395.69140625 1054.49609375 C399.61294236 1052.30771107 403.53313788 1050.11693719 407.453125 1047.92578125 C408.54653198 1047.31565186 409.63993896 1046.70552246 410.76647949 1046.0769043 C418.05702209 1041.99980544 425.29844687 1037.84666028 432.50390625 1033.62109375 C433.603396 1032.9772876 434.70288574 1032.33348145 435.83569336 1031.67016602 C436.70460205 1031.16026123 437.57351074 1030.65035645 438.46875 1030.125 C445.14116679 1026.22254707 451.85120762 1022.38673795 458.56640625 1018.55859375 C467.66237978 1013.37197677 476.74853139 1008.16927724 485.81640625 1002.93359375 C486.88246094 1002.31806641 487.94851563 1001.70253906 489.046875 1001.06835938 C492.26198148 999.21139181 495.47676003 997.35385796 498.69140625 995.49609375 C512.63984993 987.43520071 526.60144513 979.39899949 540.59613037 971.41873169 C548.65403837 966.82215152 556.68558411 962.18285215 564.69140625 957.49609375 C573.28663297 952.46428685 581.91452755 947.49220303 590.56640625 942.55859375 C599.66220612 937.37166949 608.74852888 932.16927869 617.81640625 926.93359375 C618.88246094 926.31806641 619.94851563 925.70253906 621.046875 925.06835938 C624.26198148 923.21139181 627.47676003 921.35385796 630.69140625 919.49609375 C653.94359516 906.05850801 653.94359516 906.05850801 663.70703125 900.48828125 C664.30125885 900.14919235 664.89548645 899.81010345 665.50772095 899.46073914 C668.32033829 897.85615907 671.13380773 896.25312268 673.94873047 894.65258789 C676.10358169 893.42466264 678.23558623 892.15589192 680.3445549 890.85073471 C683.65334626 888.91837798 686.96411046 887.66462784 690.58238602 886.4155159 C697.68825588 883.64208404 703.86029639 880.55226299 708.69140625 874.49609375 C712.99317192 862.904798 711.80336545 849.67179152 711.50288796 837.50970984 C711.40285803 832.38629152 711.4425805 827.263668 711.46504211 822.1395874 C711.48516563 813.27111838 711.41826266 804.40678151 711.29186249 795.53923798 C711.1094557 782.70825726 711.06428132 769.87960945 711.05267647 757.04747036 C711.03050891 736.21262605 710.90430675 715.37979494 710.70947266 694.54589844 C710.52077995 674.33895379 710.37099188 654.13244359 710.28076172 633.92480469 C710.27518174 632.67959871 710.26960176 631.43439272 710.26385269 630.15145323 C710.20380779 616.55448427 710.15205025 602.95748655 710.10206985 589.36047745 C710.08864761 585.75300361 710.07515221 582.14553006 710.06156906 578.53805682 C710.052651 576.15994046 710.04385733 573.78182363 710.03519002 571.40370634 C709.97934986 556.28437503 709.88808972 541.16581588 709.75789118 526.04694319 C709.69253164 518.42023108 709.64029437 510.79344742 709.59188727 503.16661045 C709.55256728 497.1403386 709.49627546 491.11455832 709.42654888 485.08856581 C709.38841654 481.4272591 709.36711125 477.765999 709.35063758 474.1045368 C709.33969597 472.4317783 709.32182257 470.7590473 709.29620942 469.08644912 C709.10056126 455.98049492 710.73363635 446.59423508 720.09033203 436.81787109 C724.5143215 432.86891861 729.42882812 430.11178547 734.62890625 427.30859375 C736.35903622 426.34358102 738.08915009 425.37853794 739.81826782 424.41171265 C741.59826063 423.41936031 743.3824886 422.43498688 745.16748047 421.45166016 C750.72234022 418.38173372 756.20200218 415.1810409 761.69140625 411.99609375 C763.86034894 410.74422297 766.02962056 409.49292191 768.19921875 408.2421875 C772.50742276 405.75678473 776.81463414 403.26967398 781.12109375 400.78125 C792.88347198 393.98647811 804.66156132 387.22016219 816.45935059 380.48712158 C828.15208242 373.8132377 839.81651957 367.09087093 851.47363281 360.35498047 C857.96265721 356.60631341 864.45477575 352.86300708 870.94628906 349.11865234 C876.33888939 346.00791036 881.73078447 342.89596048 887.12109375 339.78125 C898.92770109 332.96106738 910.75167625 326.17286115 922.59613037 319.41873169 C930.65403837 314.82215152 938.68558411 310.18285215 946.69140625 305.49609375 C955.28663297 300.46428685 963.91452755 295.49220303 972.56640625 290.55859375 C981.66220612 285.37166949 990.74852888 280.16927869 999.81640625 274.93359375 C1000.88246094 274.31806641 1001.94851563 273.70253906 1003.046875 273.06835938 C1006.26198148 271.21139181 1009.47676003 269.35385796 1012.69140625 267.49609375 C1026.63580724 259.437537 1040.59287348 251.40279278 1054.58404541 243.42578125 C1062.89779742 238.68412609 1071.18105804 233.89271494 1079.44140625 229.05859375 C1093.26105412 220.98239698 1093.26105412 220.98239698 1099.81640625 217.24609375 C1100.43741211 216.88717041 1101.05841797 216.52824707 1101.69824219 216.15844727 C1107.81749357 212.69695774 1112.90117842 211.1947363 1119.94140625 211.12109375 C1121.1634375 211.09273437 1122.38546875 211.064375 1123.64453125 211.03515625 C1132.82583344 211.61414696 1141.017548 217.20453622 1148.69140625 221.80859375 C1150.82121567 223.06838298 1152.9514382 224.32747403 1155.08203125 225.5859375 C1156.17322266 226.23288574 1157.26441406 226.87983398 1158.38867188 227.54638672 C1163.71783592 230.69235834 1169.0787145 233.78272872 1174.44140625 236.87109375 C1176.05208984 237.799823 1176.05208984 237.799823 1177.6953125 238.74731445 C1186.27084598 243.68803737 1194.86322097 248.59907389 1203.45880127 253.50479126 C1215.15172314 260.17875501 1226.81634233 266.90121416 1238.47363281 273.63720703 C1243.87811266 276.75933978 1249.28485343 279.87755256 1254.69140625 282.99609375 C1261.1690751 286.7324629 1267.64630608 290.46957722 1274.12109375 294.2109375 C1285.92770109 301.03112012 1297.75167625 307.81932635 1309.59613037 314.57345581 C1318.63612333 319.73025983 1327.63665946 324.95153144 1336.61816406 330.20947266 C1344.24046403 334.66525719 1351.89671936 339.06006521 1359.56640625 343.43359375 C1374.04090994 351.68775011 1388.47362471 360.01326747 1402.90039062 368.35058594 C1406.122089 370.21212047 1409.34411704 372.07308214 1412.56640625 373.93359375 C1413.63246094 374.54912109 1414.69851563 375.16464844 1415.796875 375.79882812 C1424.38136222 380.75062417 1432.98720918 385.66434243 1441.59613037 390.57345581 C1450.62443739 395.72359366 1459.61419468 400.93668673 1468.58300781 406.18969727 C1477.70878014 411.52625052 1486.88727636 416.7687607 1496.078125 421.9921875 C1525.91327523 438.97634171 1525.91327523 438.97634171 1530.05708325 453.28464234 C1531.42791377 460.22488508 1531.10535466 467.35746085 1531.0790863 474.40464783 C1531.08326274 476.22860385 1531.08874195 478.05255728 1531.09540612 479.87650591 C1531.10983866 484.87222335 1531.10562283 489.8677755 1531.0982393 494.86350191 C1531.09350456 500.25760399 1531.10602017 505.65167047 1531.11625671 511.04576111 C1531.13344368 521.60661307 1531.13428497 532.16740553 1531.12904381 542.72826784 C1531.1250009 551.31251452 1531.12644711 559.89674362 1531.13179207 568.48098946 C1531.13254049 569.70316827 1531.13328891 570.92534709 1531.13406001 572.18456163 C1531.1355915 574.66747725 1531.13712985 577.15039287 1531.13867498 579.63330848 C1531.15239951 602.91179874 1531.14696253 626.19025539 1531.13548977 649.46874488 C1531.12555618 670.76146149 1531.13850033 692.0540525 1531.16242396 713.34675842 C1531.18681035 735.21626715 1531.19642404 757.08573541 1531.18977123 778.95525748 C1531.18627816 791.2309033 1531.18851703 803.5064823 1531.20602226 815.78211784 C1531.22073839 826.23137004 1531.22138725 836.68050834 1531.20395135 847.12975829 C1531.19543445 852.45973821 1531.19330887 857.7895146 1531.20860291 863.11948395 C1531.22243897 868.00182634 1531.21770055 872.88379062 1531.19836367 877.76611108 C1531.19460009 879.52911759 1531.19753595 881.29215431 1531.20797532 883.05513393 C1531.27103801 894.52356261 1530.64572004 905.48538932 1523.26879883 914.90258789 C1516.43942392 921.8017258 1507.06270652 926.22841992 1498.62890625 930.80859375 C1496.21039421 932.13467533 1493.79450718 933.46549939 1491.37890625 934.796875 C1490.79104843 935.12035919 1490.20319061 935.44384338 1489.59751892 935.77713013 C1485.0632641 938.27711585 1480.57873107 940.84929289 1476.12890625 943.49609375 C1469.24150211 947.58924337 1462.31957057 951.61882036 1455.37890625 955.62109375 C1454.27812744 956.25587646 1453.17734863 956.89065918 1452.04321289 957.54467773 C1443.30533324 962.57752046 1434.54861775 967.57694559 1425.78915405 972.57208252 C1417.73041884 977.169116 1409.69804243 981.80885879 1401.69140625 986.49609375 C1393.09617953 991.52790065 1384.46828495 996.49998447 1375.81640625 1001.43359375 C1366.72060638 1006.62051801 1357.63428362 1011.82290881 1348.56640625 1017.05859375 C1347.50035156 1017.67412109 1346.43429687 1018.28964844 1345.3359375 1018.92382812 C1342.12083102 1020.78079569 1338.90605247 1022.63832954 1335.69140625 1024.49609375 C1321.74296257 1032.55698679 1307.78136737 1040.59318801 1293.78668213 1048.57345581 C1285.72877413 1053.17003598 1277.69722839 1057.80933535 1269.69140625 1062.49609375 C1261.09617953 1067.52790065 1252.46828495 1072.49998447 1243.81640625 1077.43359375 C1231.49399042 1084.46051151 1219.20002172 1091.53551912 1206.91796875 1098.6328125 C1203.65616618 1100.51644425 1200.39278781 1102.39731696 1197.12890625 1104.27734375 C1196.04303223 1104.90302246 1194.9571582 1105.52870117 1193.83837891 1106.17333984 C1191.67679625 1107.41880629 1189.51501604 1108.66392994 1187.35302734 1109.90869141 C1181.8189518 1113.09912184 1176.29715392 1116.30906182 1170.79296875 1119.55078125 C1169.68453613 1120.20232178 1168.57610352 1120.8538623 1167.43408203 1121.52514648 C1165.31303131 1122.77347155 1163.19412149 1124.02544324 1161.07763672 1125.28149414 C1160.13549316 1125.83571045 1159.19334961 1126.38992676 1158.22265625 1126.9609375 C1157.39314453 1127.45198975 1156.56363281 1127.94304199 1155.70898438 1128.44897461 C1153.69140625 1129.49609375 1153.69140625 1129.49609375 1151.69140625 1129.49609375 C1151.69292513 1130.38311977 1151.69444401 1131.2701458 1151.69600892 1132.18405139 C1151.78551178 1184.75074206 1151.85414772 1237.31742464 1151.89566757 1289.88417625 C1151.90067042 1296.19524523 1151.90584771 1302.50631406 1151.91113281 1308.81738281 C1151.91270668 1310.70202138 1151.91270668 1310.70202138 1151.91431233 1312.62473346 C1151.93171986 1332.97139383 1151.96325949 1353.318009 1152.00001743 1373.66464256 C1152.03741713 1394.54053711 1152.05964006 1415.41640799 1152.06776023 1436.29233468 C1152.07325 1449.17498202 1152.09059211 1462.05750165 1152.12307212 1474.94010969 C1152.14420797 1483.77294136 1152.15060838 1492.60570695 1152.14541176 1501.43856208 C1152.14284856 1506.53545921 1152.14679135 1511.63213307 1152.16822815 1516.72899055 C1152.18772043 1521.39763259 1152.18865881 1526.06590163 1152.17500183 1530.73456098 C1152.17331439 1532.42114172 1152.17836585 1534.10774592 1152.19093898 1535.79428063 C1152.27807176 1548.20648137 1151.02311631 1558.02639754 1142.13671875 1567.36572266 C1137.47087395 1571.43063497 1132.11326079 1574.26215887 1126.69140625 1577.18359375 C1125.44032773 1577.87500518 1124.19034442 1578.56840167 1122.94140625 1579.26367188 C1120.405596 1580.67444814 1117.86617854 1582.07836607 1115.32421875 1583.47802734 C1110.05819626 1586.38955682 1104.87617624 1589.442928 1099.69140625 1592.49609375 C1089.91800888 1598.2213287 1080.09350813 1603.85454443 1070.25390625 1609.46484375 C1062.3860322 1613.95165112 1054.53315223 1618.46374133 1046.69140625 1622.99609375 C1037.66609779 1628.21251861 1028.62212822 1633.3952435 1019.56640625 1638.55859375 C1010.91444766 1643.49206109 1002.2866312 1648.46428788 993.69140625 1653.49609375 C985.09617953 1658.52790065 976.46828495 1663.49998447 967.81640625 1668.43359375 C958.72060638 1673.62051801 949.63428362 1678.82290881 940.56640625 1684.05859375 C939.50035156 1684.67412109 938.43429687 1685.28964844 937.3359375 1685.92382812 C934.12083102 1687.78079569 930.90605247 1689.63832954 927.69140625 1691.49609375 C913.74296257 1699.55698679 899.78136737 1707.59318801 885.78668213 1715.57345581 C877.72877413 1720.17003598 869.69722839 1724.80933535 861.69140625 1729.49609375 C853.09617953 1734.52790065 844.46828495 1739.49998447 835.81640625 1744.43359375 C826.72060638 1749.62051801 817.63428362 1754.82290881 808.56640625 1760.05859375 C807.50035156 1760.67412109 806.43429687 1761.28964844 805.3359375 1761.92382812 C802.12083102 1763.78079569 798.90605247 1765.63832954 795.69140625 1767.49609375 C781.74296257 1775.55698679 767.78136737 1783.59318801 753.78668213 1791.57345581 C745.72877413 1796.17003598 737.69722839 1800.80933535 729.69140625 1805.49609375 C719.9163786 1811.21857824 710.09353669 1816.85452815 700.25390625 1822.46484375 C692.3860322 1826.95165112 684.53315223 1831.46374133 676.69140625 1835.99609375 C667.66609779 1841.21251861 658.62212822 1846.3952435 649.56640625 1851.55859375 C640.91444766 1856.49206109 632.2866312 1861.46428788 623.69140625 1866.49609375 C615.09617953 1871.52790065 606.46828495 1876.49998447 597.81640625 1881.43359375 C588.72060638 1886.62051801 579.63428362 1891.82290881 570.56640625 1897.05859375 C569.50035156 1897.67412109 568.43429687 1898.28964844 567.3359375 1898.92382812 C564.12083102 1900.78079569 560.90605247 1902.63832954 557.69140625 1904.49609375 C543.74296257 1912.55698679 529.78136737 1920.59318801 515.78668213 1928.57345581 C507.72877413 1933.17003598 499.69722839 1937.80933535 491.69140625 1942.49609375 C483.09617953 1947.52790065 474.46828495 1952.49998447 465.81640625 1957.43359375 C456.72060607 1962.62051819 447.63431737 1967.82296684 438.56640625 1973.05859375 C437.50397705 1973.6719458 436.44154785 1974.28529785 435.34692383 1974.91723633 C429.92792749 1978.04679418 424.51055368 1981.17914891 419.09375 1984.3125 C412.63137314 1988.04920306 406.16296459 1991.77531849 399.69140625 1995.49609375 C398.60972168 1996.11919434 397.52803711 1996.74229492 396.41357422 1997.38427734 C393.25957629 1999.19838168 390.1012233 2001.00464849 386.94140625 2002.80859375 C385.99499268 2003.35402832 385.0485791 2003.89946289 384.07348633 2004.46142578 C374.52958538 2009.88700257 365.70764651 2012.276857 354.69140625 2010.49609375 C349.84861123 2008.85393648 345.61875208 2006.55194956 341.21582031 2003.97314453 C338.28577768 2002.25875789 335.32965345 2000.59436926 332.37109375 1998.9296875 C325.7158373 1995.16963176 319.09305012 1991.35516596 312.47631836 1987.52783203 C309.65923505 1985.89946463 306.83928015 1984.2760897 304.01953125 1982.65234375 C298.64704467 1979.55731551 293.27760544 1976.45704588 287.90917969 1973.35498047 C282.50469984 1970.23284772 277.09795907 1967.11463494 271.69140625 1963.99609375 C265.2137374 1960.2597246 258.73650642 1956.52261028 252.26171875 1952.78125 C240.45511141 1945.96106738 228.63113625 1939.17286115 216.78668213 1932.41873169 C207.74668917 1927.26192767 198.74615304 1922.04065606 189.76464844 1916.78271484 C182.14234847 1912.32693031 174.48609314 1907.93212229 166.81640625 1903.55859375 C152.34190256 1895.30443739 137.90918779 1886.97892003 123.48242188 1878.64160156 C120.2607235 1876.78006703 117.03869546 1874.91910536 113.81640625 1873.05859375 C112.21732422 1872.13530273 112.21732422 1872.13530273 110.5859375 1871.19335938 C102.00145028 1866.24156333 93.39560332 1861.32784507 84.78668213 1856.41873169 C75.74668917 1851.26192767 66.74615304 1846.04065606 57.76464844 1840.78271484 C50.14234847 1836.32693031 42.48609314 1831.93212229 34.81640625 1827.55859375 C20.34190256 1819.30443739 5.90918779 1810.97892003 -8.51757812 1802.64160156 C-11.7392765 1800.78006703 -14.96130454 1798.91910536 -18.18359375 1797.05859375 C-19.78267578 1796.13530273 -19.78267578 1796.13530273 -21.4140625 1795.19335938 C-29.99854972 1790.24156333 -38.60439668 1785.32784507 -47.21331787 1780.41873169 C-56.25331083 1775.26192767 -65.25384696 1770.04065606 -74.23535156 1764.78271484 C-81.85765153 1760.32693031 -89.51390686 1755.93212229 -97.18359375 1751.55859375 C-111.65809744 1743.30443739 -126.09081221 1734.97892003 -140.51757812 1726.64160156 C-143.7392765 1724.78006703 -146.96130454 1722.91910536 -150.18359375 1721.05859375 C-151.78267578 1720.13530273 -151.78267578 1720.13530273 -153.4140625 1719.19335938 C-161.99854972 1714.24156333 -170.60439668 1709.32784507 -179.21331787 1704.41873169 C-188.25331083 1699.26192767 -197.25384696 1694.04065606 -206.23535156 1688.78271484 C-213.85765153 1684.32693031 -221.51390686 1679.93212229 -229.18359375 1675.55859375 C-241.50884571 1668.53005868 -253.80581442 1661.45368941 -266.09082031 1654.35498047 C-271.49530016 1651.23284772 -276.90204093 1648.11463494 -282.30859375 1644.99609375 C-288.7862626 1641.2597246 -295.26349358 1637.52261028 -301.73828125 1633.78125 C-313.54488859 1626.96106738 -325.36886375 1620.17286115 -337.21331787 1613.41873169 C-346.24391029 1608.26729015 -355.23641886 1603.05366905 -364.20678711 1597.7980957 C-369.64429287 1594.61758243 -375.09667948 1591.46544993 -380.5703125 1588.34765625 C-381.18866974 1587.99531921 -381.80702698 1587.64298218 -382.44412231 1587.27996826 C-385.43797042 1585.575018 -388.433603 1583.87336253 -391.43164062 1582.17578125 C-397.12431292 1578.94001684 -402.78602333 1575.65799294 -408.38671875 1572.265625 C-409.42602539 1571.63760986 -410.46533203 1571.00959473 -411.53613281 1570.36254883 C-418.59105921 1565.6130849 -422.54466108 1559.43735303 -425.30859375 1551.49609375 C-425.82743978 1548.30576235 -425.84734939 1545.19814505 -425.81114107 1541.97081953 C-425.81687457 1541.04877599 -425.82260807 1540.12673245 -425.82851531 1539.17674819 C-425.84284851 1536.08789326 -425.82873285 1532.99983576 -425.81475163 1529.91098881 C-425.81922816 1527.6642946 -425.82545613 1525.41760331 -425.83327696 1523.17091826 C-425.84972902 1516.97470809 -425.84117821 1510.77874281 -425.82866533 1504.58253266 C-425.8203942 1498.54424046 -425.8309621 1492.50599911 -425.84096701 1486.46771674 C-425.86100018 1473.96643052 -425.86202363 1461.46520696 -425.85270691 1448.96391106 C-425.84332986 1436.29458049 -425.84262026 1423.62529382 -425.85249138 1410.95596313 C-425.85310855 1410.15585739 -425.85372572 1409.35575164 -425.85436159 1408.53140026 C-425.85690303 1405.27271086 -425.85950484 1402.01402152 -425.86218361 1398.75533223 C-425.88935503 1365.66922619 -425.89077744 1332.58315378 -425.88222559 1299.49703996 C-425.88105263 1294.92468186 -425.87991949 1290.35232376 -425.87882733 1285.77996564 C-425.87861019 1284.87180353 -425.87839305 1283.96364143 -425.87816934 1283.02795926 C-425.87353793 1262.90745631 -425.87695986 1242.78695714 -425.88209384 1222.66645462 C-425.88279619 1219.91327024 -425.88348117 1217.16008586 -425.88416099 1214.40690148 C-425.88598638 1207.0266939 -425.88783195 1199.64648632 -425.88971376 1192.26627874 C-425.89493849 1171.63476139 -425.89875064 1151.00324388 -425.90141964 1130.37172604 C-425.90154119 1129.43217025 -425.90166273 1128.49261446 -425.90178796 1127.52458729 C-425.90555225 1097.58079259 -425.90296024 1067.63700181 -425.89618015 1037.69320774 C-425.8959616 1036.7218363 -425.89574304 1035.75046485 -425.89551787 1034.74965791 C-425.89307263 1023.91763004 -425.89050273 1013.08560221 -425.88788248 1002.25357438 C-425.88764594 1001.27558596 -425.8874094 1000.29759753 -425.88716569 999.2899731 C-425.88620831 995.33490514 -425.88525076 991.37983717 -425.88428554 987.42476921 C-425.86903645 924.85990412 -425.87703148 862.29508482 -425.90551758 799.73022461 C-425.91268203 783.96445758 -425.91978458 768.19869054 -425.92649937 752.43292332 C-425.92691359 751.46219639 -425.9273278 750.49146947 -425.92775457 749.49132658 C-425.94043571 719.57996888 -425.94694638 689.668615 -425.94690609 659.7572546 C-425.94690529 658.81837314 -425.94690449 657.87949168 -425.94690366 656.91215927 C-425.94681947 636.30304264 -425.94517991 615.69392636 -425.94212527 595.08480996 C-425.94104134 587.71083979 -425.94005005 580.3368696 -425.93909441 572.96289941 C-425.93885433 571.12840914 -425.93860793 569.29391888 -425.93835519 567.45942861 C-425.93435942 538.21284936 -425.9443514 508.96629607 -425.96105944 479.71972199 C-425.97821442 449.45131419 -425.97677563 419.18295775 -425.95415343 388.91455287 C-425.95179683 385.66557711 -425.94951995 382.41660129 -425.94730568 379.16762543 C-425.94675497 378.37026007 -425.94620426 377.57289472 -425.94563687 376.75136678 C-425.93736019 364.11545499 -425.94585319 351.47961226 -425.96128388 338.84370952 C-425.97609593 326.42490783 -425.9731034 314.00621682 -425.95104948 301.5874247 C-425.93973311 294.9417184 -425.93692998 288.29621184 -425.95572478 281.65050168 C-425.97264889 275.6086165 -425.96670238 269.56720872 -425.94225894 263.52535323 C-425.93750322 261.34950693 -425.94117974 259.1736223 -425.95417796 256.99780964 C-426.06922472 236.31131278 -426.06922472 236.31131278 -420.30859375 228.49609375 C-419.25671875 226.91828125 -419.25671875 226.91828125 -418.18359375 225.30859375 C-411.545126 217.93066411 -400.76386985 213.36564083 -392.24609375 208.49609375 C-390.52970695 207.51037763 -388.81332247 206.52465745 -387.09707642 205.53869629 C-385.331918 204.52503551 -383.56615043 203.51244243 -381.80029297 202.5 C-376.2966428 199.34316628 -370.80327978 196.16849424 -365.30859375 192.99609375 C-363.13935809 191.74473069 -360.97008719 190.49342873 -358.80078125 189.2421875 C-354.49257724 186.75678473 -350.18536586 184.26967398 -345.87890625 181.78125 C-334.07229891 174.96106738 -322.24832375 168.17286115 -310.40386963 161.41873169 C-302.34596163 156.82215152 -294.31441589 152.18285215 -286.30859375 147.49609375 C-277.71336703 142.46428685 -269.08547245 137.49220303 -260.43359375 132.55859375 C-251.33779388 127.37166949 -242.25147112 122.16927869 -233.18359375 116.93359375 C-232.11753906 116.31806641 -231.05148438 115.70253906 -229.953125 115.06835938 C-226.73801852 113.21139181 -223.52323997 111.35385796 -220.30859375 109.49609375 C-206.36015007 101.43520071 -192.39855487 93.39899949 -178.40386963 85.41873169 C-170.34596163 80.82215152 -162.31441589 76.18285215 -154.30859375 71.49609375 C-145.71336703 66.46428685 -137.08547245 61.49220303 -128.43359375 56.55859375 C-119.33779388 51.37166949 -110.25147112 46.16927869 -101.18359375 40.93359375 C-99.58451172 40.01030273 -99.58451172 40.01030273 -97.953125 39.06835938 C-94.73801852 37.21139181 -91.52323997 35.35385796 -88.30859375 33.49609375 C-79.64560517 28.48969834 -70.98029212 23.48739076 -62.30859375 18.49609375 C-61.70072021 18.14619385 -61.09284668 17.79629395 -60.46655273 17.43579102 C-56.65662218 15.2433255 -52.84492459 13.05397375 -49.03118896 10.86813354 C-47.81709266 10.17188616 -46.60341569 9.47490695 -45.39019775 8.77713013 C-31.25369208 0.64887421 -16.29008087 -7.75590341 0 0 Z M-21.12890625 69.06640625 C-22.12639893 69.62569824 -23.1238916 70.18499023 -24.15161133 70.76123047 C-25.77619263 71.68186279 -25.77619263 71.68186279 -27.43359375 72.62109375 C-29.11908325 73.57072998 -29.11908325 73.57072998 -30.83862305 74.53955078 C-39.29806635 79.31456445 -47.69729594 84.19108544 -56.07714844 89.10424805 C-63.74961955 93.59977822 -71.45832611 98.02963786 -79.18359375 102.43359375 C-88.27956728 107.62021073 -97.36571889 112.82291026 -106.43359375 118.05859375 C-107.49964844 118.67412109 -108.56570313 119.28964844 -109.6640625 119.92382812 C-112.87916898 121.78079569 -116.09394753 123.63832954 -119.30859375 125.49609375 C-133.25703743 133.55698679 -147.21863263 141.59318801 -161.21331787 149.57345581 C-169.27122587 154.17003598 -177.30277161 158.80933535 -185.30859375 163.49609375 C-195.0836214 169.21857824 -204.90646331 174.85452815 -214.74609375 180.46484375 C-222.6139678 184.95165112 -230.46684777 189.46374133 -238.30859375 193.99609375 C-246.74229822 198.87058483 -255.1907493 203.71835722 -263.65289307 208.54324341 C-273.90694688 214.39007502 -284.13079917 220.28555055 -294.31884766 226.24682617 C-302.13227663 230.81703177 -309.96629038 235.35068824 -317.80859375 239.87109375 C-318.39046448 240.20650177 -318.97233521 240.54190979 -319.57183838 240.88748169 C-322.81695884 242.75782632 -326.06256079 244.62733329 -329.30859375 246.49609375 C-326.075924 249.18690855 -322.88082178 251.43494183 -319.1953125 253.45703125 C-318.20748779 254.00343262 -317.21966309 254.54983398 -316.2019043 255.11279297 C-315.14398682 255.69303223 -314.08606934 256.27327148 -312.99609375 256.87109375 C-304.43952576 261.61170193 -295.93191341 266.41869378 -287.49609375 271.37109375 C-278.80025779 276.47224816 -270.06853065 281.50617868 -261.30859375 286.49609375 C-252.61441212 291.44958821 -243.943617 296.43988005 -235.30859375 301.49609375 C-226.71342085 306.52799165 -218.08547153 311.49998499 -209.43359375 316.43359375 C-194.95909006 324.68775011 -180.52637529 333.01326747 -166.09960938 341.35058594 C-162.877911 343.21212047 -159.65588296 345.07308214 -156.43359375 346.93359375 C-155.36753906 347.54912109 -154.30148437 348.16464844 -153.203125 348.79882812 C-144.61863778 353.75062417 -136.01279082 358.66434243 -127.40386963 363.57345581 C-118.36387667 368.73025983 -109.36334054 373.95153144 -100.38183594 379.20947266 C-91.58445337 384.35217779 -82.73875222 389.40875555 -73.88647461 394.45605469 C-66.96549707 398.40284554 -60.05343198 402.36432497 -53.15478516 406.35009766 C-50.98804633 407.60116782 -48.81978107 408.84959854 -46.64990234 410.09521484 C-41.47529445 413.06843934 -36.32904285 416.07627642 -31.2265625 419.171875 C-30.2687085 419.74389648 -29.31085449 420.31591797 -28.32397461 420.90527344 C-26.53218087 421.97652154 -24.74967634 423.06352602 -22.97875977 424.16894531 C-18.48710628 426.90732194 -18.48710628 426.90732194 -13.39453125 427.1875 C-8.77537783 424.65573616 -4.20607194 422.07275719 0.31640625 419.37109375 C2.47454086 418.09643718 4.63342581 416.82305035 6.79296875 415.55078125 C8.48534668 414.55256348 8.48534668 414.55256348 10.21191406 413.53417969 C15.42045368 410.47423132 20.67211239 407.48977754 25.92254639 404.50250244 C35.20932332 399.21870738 44.4709525 393.89510464 53.69140625 388.49609375 C62.28657915 383.46419585 70.91452847 378.49220251 79.56640625 373.55859375 C88.66220612 368.37166949 97.74852888 363.16927869 106.81640625 357.93359375 C108.41548828 357.01030273 108.41548828 357.01030273 110.046875 356.06835938 C113.26198148 354.21139181 116.47676003 352.35385796 119.69140625 350.49609375 C133.63984993 342.43520071 147.60144513 334.39899949 161.59613037 326.41873169 C169.65403837 321.82215152 177.68558411 317.18285215 185.69140625 312.49609375 C194.28663297 307.46428685 202.91452755 302.49220303 211.56640625 297.55859375 C224.96770621 289.91643705 238.33393649 282.21463769 251.69140625 274.49609375 C267.33653586 265.45811648 282.99379588 256.4426693 298.69140625 247.49609375 C295.28306979 244.65057335 291.85673641 242.31397773 287.9921875 240.1328125 C286.87908203 239.50117188 285.76597656 238.86953125 284.61914062 238.21875 C284.03092529 237.88762207 283.44270996 237.55649414 282.83666992 237.21533203 C280.32284566 235.80019665 277.8144589 234.3755417 275.30563354 232.9515686 C274.00800573 232.21520634 272.71009061 231.47935015 271.41189575 230.74398804 C265.15137343 227.19651265 258.91955478 223.60006828 252.69140625 219.99609375 C244.25815354 215.1212325 235.80961121 210.27401763 227.34765625 205.44921875 C217.1195529 199.61740544 206.92550609 193.73107145 196.76464844 187.78271484 C189.14234847 183.32693031 181.48609314 178.93212229 173.81640625 174.55859375 C159.34190256 166.30443739 144.90918779 157.97892003 130.48242188 149.64160156 C127.2607235 147.78006703 124.03869546 145.91910536 120.81640625 144.05859375 C119.75035156 143.44306641 118.68429687 142.82753906 117.5859375 142.19335938 C109.00145028 137.24156333 100.39560332 132.32784507 91.78668213 127.41873169 C82.74668917 122.26192767 73.74615304 117.04065606 64.76464844 111.78271484 C55.97095547 106.64216654 47.12922342 101.58723742 38.28027344 96.54272461 C30.15175295 91.9079717 22.04216614 87.24171608 13.94140625 82.55859375 C3.07987283 76.28511908 3.07987283 76.28511908 -7.80859375 70.05859375 C-8.77877441 69.5008728 -8.77877441 69.5008728 -9.76855469 68.93188477 C-14.83826492 66.06557025 -16.12636121 66.25196183 -21.12890625 69.06640625 Z M1114.1328125 282.99609375 C1113.2042041 283.54515381 1112.2755957 284.09421387 1111.31884766 284.65991211 C1110.30741699 285.26585205 1109.29598633 285.87179199 1108.25390625 286.49609375 C1106.06582856 287.79028801 1103.87699611 289.08320686 1101.6875 290.375 C1100.83206604 290.88094444 1100.83206604 290.88094444 1099.95935059 291.39710999 C1093.61704136 295.14347491 1087.21794166 298.78961884 1080.81640625 302.43359375 C1078.44626251 303.78453936 1076.07656404 305.13626436 1073.70703125 306.48828125 C1072.82915703 306.9891198 1072.82915703 306.9891198 1071.93354797 307.50007629 C1065.80051 311.00109906 1059.68214026 314.52744141 1053.56640625 318.05859375 C1052.50035156 318.67412109 1051.43429687 319.28964844 1050.3359375 319.92382812 C1047.12083102 321.78079569 1043.90605247 323.63832954 1040.69140625 325.49609375 C1026.74296257 333.55698679 1012.78136737 341.59318801 998.78668213 349.57345581 C990.72877413 354.17003598 982.69722839 358.80933535 974.69140625 363.49609375 C966.09617953 368.52790065 957.46828495 373.49998447 948.81640625 378.43359375 C939.72060638 383.62051801 930.63428362 388.82290881 921.56640625 394.05859375 C920.50035156 394.67412109 919.43429687 395.28964844 918.3359375 395.92382812 C915.12083102 397.78079569 911.90605247 399.63832954 908.69140625 401.49609375 C895.92511594 408.87381295 883.15302577 416.24030211 870.34454346 423.54452515 C858.09749547 430.52899564 845.89903296 437.59308696 833.73242188 444.71679688 C828.22220798 447.94082055 822.7063939 451.15524536 817.19140625 454.37109375 C815.16013369 455.5559509 813.12888149 456.74084297 811.09765625 457.92578125 C809.62890625 458.78255208 808.16015625 459.63932292 806.69140625 460.49609375 C809.46877971 463.48494643 812.13069616 465.50660283 815.70703125 467.45703125 C816.69807861 468.00343262 817.68912598 468.54983398 818.71020508 469.11279297 C819.77650146 469.69303223 820.84279785 470.27327148 821.94140625 470.87109375 C824.22235596 472.12969658 826.50227998 473.3901598 828.78125 474.65234375 C829.3611821 474.97298798 829.9411142 475.2936322 830.53862 475.62399292 C836.24507537 478.78629021 841.87904941 482.06650219 847.50390625 485.37109375 C856.15975186 490.44809387 864.8486381 495.46384149 873.56640625 500.43359375 C888.0411869 508.68726147 902.47362804 517.0132694 916.90039062 525.35058594 C920.122089 527.21212047 923.34411704 529.07308214 926.56640625 530.93359375 C927.63246094 531.54912109 928.69851563 532.16464844 929.796875 532.79882812 C938.38136222 537.75062417 946.98720918 542.66434243 955.59613037 547.57345581 C964.63612333 552.73025983 973.63665946 557.95153144 982.61816406 563.20947266 C990.830558 568.01020971 999.08402 572.73749633 1007.34765625 577.44921875 C1016.8819383 582.8854322 1026.39522829 588.35704481 1035.89746094 593.84912109 C1043.85550316 598.44530634 1051.83301575 603.00667138 1059.81640625 607.55859375 C1068.61427796 612.5752203 1077.38615255 617.6338959 1086.12890625 622.74609375 C1087.09755615 623.31021973 1088.06620605 623.8743457 1089.06420898 624.45556641 C1093.95038027 627.30174366 1098.82223879 630.16880712 1103.67578125 633.0703125 C1105.5766418 634.19171332 1107.47767611 635.31281966 1109.37890625 636.43359375 C1110.24636475 636.96049805 1111.11382324 637.48740234 1112.00756836 638.03027344 C1112.81460205 638.50239258 1113.62163574 638.97451172 1114.453125 639.4609375 C1115.15397217 639.87980225 1115.85481934 640.29866699 1116.5769043 640.73022461 C1119.37689105 641.74437522 1120.86603053 641.37704873 1123.69140625 640.49609375 C1126.07008808 639.36506529 1126.07008808 639.36506529 1128.4453125 637.8984375 C1129.36747559 637.3526001 1130.28963867 636.8067627 1131.23974609 636.24438477 C1132.23441895 635.64682373 1133.2290918 635.0492627 1134.25390625 634.43359375 C1136.4237383 633.14848785 1138.59434253 631.86468505 1140.765625 630.58203125 C1141.9004834 629.91010742 1143.0353418 629.23818359 1144.20458984 628.54589844 C1149.95579164 625.15426215 1155.76380865 621.86117193 1161.56640625 618.55859375 C1163.93657213 617.20768691 1166.30625956 615.85594265 1168.67578125 614.50390625 C1169.26102066 614.17001892 1169.84626007 613.83613159 1170.44923401 613.49212646 C1179.81083234 608.14810305 1189.1402796 602.74812056 1198.47363281 597.35498047 C1203.8781127 594.2328477 1209.28488037 591.11468171 1214.69140625 587.99609375 C1216.85808375 586.74611253 1219.02475042 585.49611254 1221.19140625 584.24609375 C1225.52473958 581.74609375 1229.85807292 579.24609375 1234.19140625 576.74609375 C1235.26374512 576.12742432 1236.33608398 575.50875488 1237.44091797 574.87133789 C1239.60916889 573.62044895 1241.77746322 572.36963523 1243.94580078 571.11889648 C1249.3385854 568.0081104 1254.73062718 564.89605137 1260.12109375 561.78125 C1271.92770109 554.96106738 1283.75167625 548.17286115 1295.59613037 541.41873169 C1303.65403837 536.82215152 1311.68558411 532.18285215 1319.69140625 527.49609375 C1328.28663297 522.46428685 1336.91452755 517.49220303 1345.56640625 512.55859375 C1357.88598598 505.53329329 1370.17695465 498.45964739 1382.45605469 491.36376953 C1385.74364554 489.4659375 1389.03359481 487.57225504 1392.32421875 485.6796875 C1406.16997527 477.71288315 1419.96040738 469.65917466 1433.69140625 461.49609375 C1430.28306979 458.65057335 1426.85673641 456.31397773 1422.9921875 454.1328125 C1421.3222876 453.18523071 1421.3222876 453.18523071 1419.61865234 452.21850586 C1419.03041687 451.88736786 1418.4421814 451.55622986 1417.83612061 451.21505737 C1415.3245431 449.80113939 1412.81848109 448.37756725 1410.31195068 446.95472717 C1409.01524089 446.21881832 1407.71824124 445.48341999 1406.42095947 444.7485199 C1400.11704357 441.1765152 1393.83930814 437.5597624 1387.56640625 433.93359375 C1385.97179565 433.01259888 1385.97179565 433.01259888 1384.3449707 432.07299805 C1382.19959065 430.83386032 1380.05432654 429.59452185 1377.90917969 428.35498047 C1372.50469984 425.23284772 1367.09795907 422.11463494 1361.69140625 418.99609375 C1355.2137374 415.2597246 1348.73650642 411.52261028 1342.26171875 407.78125 C1330.45511141 400.96106738 1318.63113625 394.17286115 1306.78668213 387.41873169 C1297.74668917 382.26192767 1288.74615304 377.04065606 1279.76464844 371.78271484 C1272.14234847 367.32693031 1264.48609314 362.93212229 1256.81640625 358.55859375 C1242.34190256 350.30443739 1227.90918779 341.97892003 1213.48242188 333.64160156 C1201.2348177 326.56479441 1188.97642753 319.5077304 1176.69140625 312.49609375 C1167.41183543 307.19873206 1158.13815025 301.89142816 1148.87890625 296.55859375 C1147.8024585 295.93911865 1146.72601074 295.31964355 1145.61694336 294.68139648 C1139.00464472 290.86492615 1132.42576831 286.99881513 1125.96362305 282.93188477 C1121.09529038 279.9288984 1118.94975412 280.11922283 1114.1328125 282.99609375 Z M-361.30859375 303.49609375 C-361.30859375 706.75609375 -361.30859375 1110.01609375 -361.30859375 1525.49609375 C-347.94359375 1532.92109375 -347.94359375 1532.92109375 -334.30859375 1540.49609375 C-327.30902931 1544.55801716 -320.31629518 1548.6270033 -313.33740234 1552.72363281 C-308.09022091 1555.79428711 -302.82510411 1558.83374379 -297.55859375 1561.87109375 C-295.94803101 1562.8000647 -295.94803101 1562.8000647 -294.30493164 1563.74780273 C-285.68523233 1568.713882 -277.04596516 1573.64527643 -268.40441895 1578.57318115 C-259.36423852 1583.7300702 -250.36351751 1588.95142784 -241.38183594 1594.20947266 C-233.75953597 1598.66525719 -226.10328064 1603.06006521 -218.43359375 1607.43359375 C-203.95909006 1615.68775011 -189.52637529 1624.01326747 -175.09960938 1632.35058594 C-171.877911 1634.21212047 -168.65588296 1636.07308214 -165.43359375 1637.93359375 C-163.83451172 1638.85688477 -163.83451172 1638.85688477 -162.203125 1639.79882812 C-153.61863778 1644.75062417 -145.01279082 1649.66434243 -136.40386963 1654.57345581 C-127.36387667 1659.73025983 -118.36334054 1664.95153144 -109.38183594 1670.20947266 C-101.75953597 1674.66525719 -94.10328064 1679.06006521 -86.43359375 1683.43359375 C-71.95909006 1691.68775011 -57.52637529 1700.01326747 -43.09960938 1708.35058594 C-39.877911 1710.21212047 -36.65588296 1712.07308214 -33.43359375 1713.93359375 C-31.83451172 1714.85688477 -31.83451172 1714.85688477 -30.203125 1715.79882812 C-21.61863778 1720.75062417 -13.01279082 1725.66434243 -4.40386963 1730.57345581 C4.63612333 1735.73025983 13.63665946 1740.95153144 22.61816406 1746.20947266 C30.24046403 1750.66525719 37.89671936 1755.06006521 45.56640625 1759.43359375 C60.04090994 1767.68775011 74.47362471 1776.01326747 88.90039062 1784.35058594 C92.122089 1786.21212047 95.34411704 1788.07308214 98.56640625 1789.93359375 C100.16548828 1790.85688477 100.16548828 1790.85688477 101.796875 1791.79882812 C110.38136222 1796.75062417 118.98720918 1801.66434243 127.59613037 1806.57345581 C136.63612333 1811.73025983 145.63665946 1816.95153144 154.61816406 1822.20947266 C162.830558 1827.01020971 171.08402 1831.73749633 179.34765625 1836.44921875 C188.8819383 1841.8854322 198.39522829 1847.35704481 207.89746094 1852.84912109 C215.26362462 1857.10346555 222.64552814 1861.3295843 230.03515625 1865.54296875 C240.2632596 1871.37478206 250.45730641 1877.26111605 260.61816406 1883.20947266 C268.24046378 1887.66525705 275.89670657 1892.06008766 283.56640625 1896.43359375 C293.09996708 1901.87001873 302.62286894 1907.32415929 312.12890625 1912.80859375 C313.21864746 1913.43693115 314.30838867 1914.06526855 315.43115234 1914.71264648 C323.38809219 1919.30640245 323.38809219 1919.30640245 326.39086914 1921.18432617 C328.5395994 1922.66120527 328.5395994 1922.66120527 330.69140625 1922.49609375 C331.24105395 1876.74589948 331.66379275 1830.99605538 331.91697416 1785.24320879 C331.94699017 1779.83856609 331.978054 1774.43392988 332.00976562 1769.02929688 C332.01606108 1767.95335729 332.02235653 1766.8774177 332.02884275 1765.76887389 C332.1332031 1748.3597303 332.32238636 1730.95249378 332.54307336 1713.54448061 C332.76772271 1695.674516 332.90085921 1677.80554816 332.94953012 1659.93422949 C332.98242321 1648.91029314 333.08617208 1637.89174634 333.28140146 1626.86947013 C333.40853841 1619.30499157 333.44655486 1611.74328709 333.41543931 1604.1778184 C333.40009591 1599.81401967 333.42310283 1595.45960867 333.55233765 1591.09749413 C334.65747784 1573.90503606 334.65747784 1573.90503606 328.32512283 1558.74519968 C322.60536209 1554.11349607 316.35174544 1551.17226079 309.49946594 1548.58820176 C305.82981762 1547.16100549 302.62384518 1545.32565419 299.25 1543.3046875 C297.21098423 1542.17854393 295.17065134 1541.05478135 293.12890625 1539.93359375 C290.84469129 1538.67122554 288.56084312 1537.40819343 286.27734375 1536.14453125 C285.1697168 1535.5319043 284.06208984 1534.91927734 282.92089844 1534.28808594 C268.88307786 1526.4987298 254.95692067 1518.50988889 241.025177 1510.5329895 C231.7564682 1505.22748978 222.45172457 1499.98916991 213.12548828 1494.78540039 C204.68845923 1490.07098212 196.29598064 1485.28100203 187.91064453 1480.47558594 C179.69647501 1475.76952782 171.45846871 1471.10879866 163.19140625 1466.49609375 C154.32679906 1461.54998171 145.49875212 1456.54316953 136.69140625 1451.49609375 C125.72845324 1445.21435013 114.72176118 1439.01427092 103.69140625 1432.8515625 C88.75107463 1424.50297835 73.87786284 1416.03748358 59.02572632 1407.53326416 C49.75683067 1402.22768036 40.45190253 1396.98926921 31.12548828 1391.78540039 C22.10538631 1386.74517435 13.13246539 1381.62429495 4.17456055 1376.47460938 C-1.62730089 1373.14347439 -7.44722333 1369.85659461 -13.3203125 1366.65234375 C-14.44373047 1366.03617188 -15.56714844 1365.42 -16.72460938 1364.78515625 C-18.82856905 1363.63457293 -20.93758524 1362.49316284 -23.05273438 1361.36328125 C-33.22372943 1355.78674649 -41.22729827 1349.66499612 -45.30859375 1338.49609375 C-46.21159524 1334.75057315 -46.43085295 1331.28228575 -46.4242456 1327.43408173 C-46.42459538 1326.20649045 -46.42494516 1324.97889916 -46.42530555 1323.71410814 C-46.42060413 1322.35221716 -46.41581431 1320.99032648 -46.41094589 1319.62843609 C-46.40944925 1318.17541619 -46.40839937 1316.72239577 -46.40775639 1315.26937523 C-46.4047147 1311.25825022 -46.39541224 1307.24715983 -46.38518145 1303.23604761 C-46.37521577 1298.87913144 -46.37119154 1294.52220941 -46.36650205 1290.16528493 C-46.35751895 1282.52306022 -46.34499719 1274.88084781 -46.33021736 1267.2386322 C-46.30628494 1254.80641766 -46.28971549 1242.37419851 -46.27433777 1229.94197083 C-46.26890072 1225.59681401 -46.26343342 1221.25165723 -46.2579627 1216.90650046 C-46.25591155 1215.26842356 -46.25591155 1215.26842356 -46.25381896 1213.5972542 C-46.24381098 1205.66306678 -46.23285283 1197.72888098 -46.2215867 1189.79469526 C-46.17491602 1156.61608665 -46.14984361 1123.43750357 -46.13751221 1090.25886536 C-46.13658283 1087.83803452 -46.13565143 1085.41720368 -46.13471803 1082.99637284 C-46.12670664 1061.9973893 -46.11993157 1040.99840538 -46.11393789 1019.99942118 C-46.10920692 1003.46600374 -46.1036751 986.93258676 -46.09716797 970.39916992 C-46.09668006 969.13101414 -46.09619215 967.86285835 -46.09568945 966.5562736 C-46.07957705 925.41899117 -46.02378115 884.28187293 -45.9485443 843.14465999 C-45.87145467 800.86849683 -45.83705841 758.59250259 -45.85552699 716.31626829 C-45.85810744 710.34922062 -45.86018402 704.38217286 -45.86194611 698.41512489 C-45.86248633 696.65351586 -45.86248633 696.65351586 -45.86303747 694.85631876 C-45.86755187 675.93312803 -45.82665465 657.01029311 -45.76869586 638.08720185 C-45.71139808 619.0787447 -45.70094681 600.07072647 -45.73875883 581.06221624 C-45.75978879 569.76112815 -45.74433267 558.4614413 -45.67725082 547.16052551 C-45.63602293 539.61751749 -45.64169825 532.07549848 -45.68592389 524.53250958 C-45.709791 520.23015712 -45.7128602 515.93050609 -45.65883633 511.62836649 C-45.61008524 507.71438288 -45.62106294 503.80530042 -45.67987599 499.89149657 C-45.69052555 498.4842312 -45.67933503 497.07658983 -45.6437493 495.66973415 C-45.54068815 491.30859097 -45.69373409 487.57102838 -47.30859375 483.49609375 C-51.28346095 479.88324877 -55.44636138 477.79331758 -60.30859375 475.49609375 C-62.47826668 474.26136654 -64.63985513 473.0122031 -66.7890625 471.7421875 C-69.02359077 470.47063529 -71.25930761 469.20116993 -73.49609375 467.93359375 C-75.96676972 466.52843898 -78.43647481 465.12158102 -80.90625 463.71484375 C-81.52634949 463.36191757 -82.14644897 463.00899139 -82.78533936 462.64537048 C-89.0149746 459.09825319 -95.22609595 455.51929711 -101.43359375 451.93359375 C-103.02917114 451.01211548 -103.02917114 451.01211548 -104.65698242 450.07202148 C-106.80168962 448.83317152 -108.94630255 447.59415834 -111.09082031 446.35498047 C-116.49530016 443.23284772 -121.90204093 440.11463494 -127.30859375 436.99609375 C-133.7862626 433.2597246 -140.26349358 429.52261028 -146.73828125 425.78125 C-158.54488859 418.96106738 -170.36886375 412.17286115 -182.21331787 405.41873169 C-191.25331083 400.26192767 -200.25384696 395.04065606 -209.23535156 389.78271484 C-217.4477455 384.98197779 -225.7012075 380.25469117 -233.96484375 375.54296875 C-243.4991258 370.1067553 -253.01241579 364.63514269 -262.51464844 359.14306641 C-269.88081212 354.88872195 -277.26271564 350.6626032 -284.65234375 346.44921875 C-294.86647325 340.62537298 -305.04703801 334.74782466 -315.19360352 328.80688477 C-326.578906 322.15064237 -338.03447979 315.61661304 -349.50048828 309.10058594 C-351.20501476 308.12665549 -352.90521182 307.14502214 -354.59716797 306.14941406 C-357.73918579 304.14520776 -357.73918579 304.14520776 -361.30859375 303.49609375 Z M324.30859375 305.84765625 C323.40149658 306.36175049 322.49439941 306.87584473 321.55981445 307.40551758 C320.57198975 307.97165771 319.58416504 308.53779785 318.56640625 309.12109375 C317.53668701 309.70721436 316.50696777 310.29333496 315.44604492 310.8972168 C307.27331133 315.5608871 299.14416045 320.2983187 291.02441406 325.0534668 C283.31646135 329.56297816 275.57415717 334.01050312 267.81640625 338.43359375 C258.72051704 343.62035997 249.63428234 348.82290955 240.56640625 354.05859375 C239.50035156 354.67412109 238.43429687 355.28964844 237.3359375 355.92382812 C234.12083102 357.78079569 230.90605247 359.63832954 227.69140625 361.49609375 C213.74296257 369.55698679 199.78136737 377.59318801 185.78668213 385.57345581 C177.72877413 390.17003598 169.69722839 394.80933535 161.69140625 399.49609375 C153.09617953 404.52790065 144.46828495 409.49998447 135.81640625 414.43359375 C126.72060638 419.62051801 117.63428362 424.82290881 108.56640625 430.05859375 C107.50035156 430.67412109 106.43429687 431.28964844 105.3359375 431.92382812 C102.12083102 433.78079569 98.90605247 435.63832954 95.69140625 437.49609375 C82.92302127 444.87502347 70.1488211 452.24269351 57.33822632 459.5480957 C47.53731613 465.13771554 37.75427672 470.75628372 28.00390625 476.43359375 C26.46162354 477.3299353 26.46162354 477.3299353 24.88818359 478.24438477 C23.95312988 478.79022217 23.01807617 479.33605957 22.0546875 479.8984375 C21.23266846 480.37788818 20.41064941 480.85733887 19.5637207 481.35131836 C17.74894447 482.3604155 17.74894447 482.3604155 16.69140625 483.49609375 C16.59363289 485.22372512 16.56693391 486.95539954 16.56720775 488.68579537 C16.56496046 489.82044225 16.56271317 490.95508913 16.56039777 492.12411925 C16.56302479 493.38892514 16.5656518 494.65373102 16.56835842 495.95686436 C16.56761966 497.30531825 16.56644202 498.65377196 16.56486192 500.00222513 C16.56177255 503.74160424 16.56498476 507.48095646 16.56914006 511.22033358 C16.57255703 515.27561296 16.57020677 519.33088946 16.56856257 523.38616937 C16.56648276 530.50474091 16.5681429 537.62330412 16.57220078 544.74187469 C16.57821807 555.32704811 16.57853823 565.91221624 16.57765879 576.49739106 C16.57634262 594.30046325 16.57969488 612.10353174 16.58567619 629.90660286 C16.59158625 647.54265422 16.59544073 665.17870405 16.59652901 682.81475639 C16.59659775 683.90990161 16.59666649 685.00504683 16.59673731 686.13337826 C16.59707563 691.69470478 16.59737702 697.25603131 16.59766418 702.81735783 C16.59976652 742.24355536 16.60650925 781.66975087 16.6159668 821.09594727 C16.62514606 859.40616851 16.63223221 897.7163892 16.63647461 936.02661133 C16.63660614 937.20678397 16.63673766 938.38695662 16.63687317 939.60289207 C16.63819165 951.45429838 16.63946747 963.3057047 16.64071203 975.15711103 C16.64324848 999.3013909 16.64606973 1023.44567074 16.64906311 1047.58995056 C16.6492004 1048.70014952 16.64933769 1049.81034848 16.64947914 1050.95418983 C16.65868516 1125.13482531 16.67453098 1199.31545967 16.69140625 1273.49609375 C18.45659017 1272.53385769 20.2217031 1271.57149139 21.98678589 1270.60906982 C23.46121816 1269.8052141 23.46121816 1269.8052141 24.96543694 1268.98511887 C37.78796956 1261.98097798 50.54161712 1254.83887911 63.1081543 1247.38452148 C72.78672399 1241.64647119 82.55470337 1236.06189063 92.30517578 1230.44726562 C95.59021247 1228.55440238 98.87357061 1226.65866668 102.15625 1224.76171875 C113.95071197 1217.9473005 125.76331864 1211.16622224 137.59613037 1204.41873169 C145.65403837 1199.82215152 153.68558411 1195.18285215 161.69140625 1190.49609375 C171.4664339 1184.77360926 181.28927581 1179.13765935 191.12890625 1173.52734375 C198.9967803 1169.04053638 206.84966027 1164.52844617 214.69140625 1159.99609375 C223.71671471 1154.77966889 232.76068428 1149.596944 241.81640625 1144.43359375 C251.44772238 1138.9416831 261.04233659 1133.39029452 270.609375 1127.78710938 C278.31433253 1123.28149513 286.06028212 1118.8501931 293.81640625 1114.43359375 C302.70662609 1109.36948638 311.56802066 1104.25985847 320.37890625 1099.05859375 C321.3117041 1098.50872803 322.24450195 1097.9588623 323.20556641 1097.39233398 C327.16756751 1095.24069736 327.16756751 1095.24069736 330.69140625 1092.49609375 C330.78917526 1090.77060228 330.8158786 1089.04106326 330.81560475 1087.31280416 C330.81785204 1086.1795907 330.82009933 1085.04637723 330.82241473 1083.87882397 C330.81978771 1082.61562243 330.8171607 1081.35242089 330.81445408 1080.05094051 C330.81519284 1078.70419205 330.81637048 1077.35744376 330.81795058 1076.01069602 C330.82103995 1072.27605209 330.81782774 1068.54143507 330.81367244 1064.80679313 C330.81025547 1060.75664676 330.81260573 1056.70650329 330.81424993 1052.65635639 C330.81632974 1045.54679723 330.8146696 1038.43724641 330.81061172 1031.32768822 C330.80459443 1020.75591605 330.80427427 1010.18414918 330.80515371 999.61237562 C330.80646988 981.83184234 330.80311762 964.05131276 330.79713631 946.27078056 C330.79122625 928.65705789 330.78737177 911.04333677 330.78628349 893.42961311 C330.78621475 892.33585424 330.78614601 891.24209537 330.78607519 890.1151923 C330.78573687 884.56090582 330.78543548 879.00661934 330.78514832 873.45233286 C330.78304598 834.07604963 330.77630326 794.69976842 330.7668457 755.32348633 C330.75766643 717.06176769 330.75058029 678.8000496 330.74633789 640.53833008 C330.74620636 639.35965149 330.74607484 638.1809729 330.74593933 636.96657678 C330.74462085 625.13017386 330.74334503 613.29377094 330.74210047 601.45736802 C330.73956402 577.34365405 330.73674277 553.22994011 330.73374939 529.1162262 C330.7336121 528.00743273 330.73347481 526.89863926 330.73333336 525.75624598 C330.72412734 451.66952773 330.70828152 377.5828106 330.69140625 303.49609375 C328.00508375 303.49609375 326.64502388 304.51786201 324.30859375 305.84765625 Z M773.69140625 516.49609375 C773.39390327 561.96677769 773.16480788 607.43735869 773.02755697 652.90882388 C773.01129762 658.27613157 772.99447145 663.64343735 772.97729492 669.01074219 C772.97388489 670.07928379 772.97047485 671.1478254 772.96696148 672.24874705 C772.91038152 689.55453178 772.80787587 706.85975558 772.6884199 724.16520745 C772.56688389 741.91996591 772.49464959 759.67443046 772.46825582 777.42958784 C772.45041037 788.38739295 772.39403701 799.34361273 772.28849218 810.30092984 C772.21981491 817.81308563 772.19899478 825.324421 772.21588834 832.83686799 C772.22422314 837.17301707 772.21138562 841.50639533 772.14173508 845.84205246 C772.07839792 849.81371613 772.07529547 853.78075201 772.11972062 857.75263017 C772.1252085 859.18758048 772.10874889 860.622821 772.06792488 862.05720097 C771.94885492 866.4998101 772.08374917 870.33030054 773.69140625 874.49609375 C777.66062874 878.13550617 781.81025767 880.20653983 786.69140625 882.49609375 C788.86143285 883.73019929 791.02307783 884.97929049 793.171875 886.25 C795.40640327 887.52155221 797.64212011 888.79101757 799.87890625 890.05859375 C802.34958222 891.46374852 804.81928731 892.87060648 807.2890625 894.27734375 C807.90916199 894.63026993 808.52926147 894.98319611 809.16815186 895.34681702 C815.3977871 898.89393431 821.60890845 902.47289039 827.81640625 906.05859375 C828.88012451 906.6729126 829.94384277 907.28723145 831.03979492 907.92016602 C833.18450212 909.15901598 835.32911505 910.39802916 837.47363281 911.63720703 C842.87811266 914.75933978 848.28485343 917.87755256 853.69140625 920.99609375 C860.1690751 924.7324629 866.64630608 928.46957722 873.12109375 932.2109375 C884.92770109 939.03112012 896.75167625 945.81932635 908.59613037 952.57345581 C917.63612333 957.73025983 926.63665946 962.95153144 935.61816406 968.20947266 C943.24046403 972.66525719 950.89671936 977.06006521 958.56640625 981.43359375 C973.04090994 989.68775011 987.47362471 998.01326747 1001.90039062 1006.35058594 C1005.122089 1008.21212047 1008.34411704 1010.07308214 1011.56640625 1011.93359375 C1012.63246094 1012.54912109 1013.69851563 1013.16464844 1014.796875 1013.79882812 C1023.37562137 1018.74731268 1031.97519569 1023.65868798 1040.57901001 1028.56338501 C1049.96185558 1033.91384158 1059.30637664 1039.32749098 1068.61572266 1044.80493164 C1073.21580692 1047.50398162 1077.83856898 1050.14247516 1082.52514648 1052.68896484 C1083.98427711 1053.4825087 1083.98427711 1053.4825087 1085.47288513 1054.29208374 C1086.2049971 1054.68940704 1086.93710907 1055.08673035 1087.69140625 1055.49609375 C1087.98890923 1010.02540981 1088.21800462 964.55482881 1088.35525553 919.08336362 C1088.37151488 913.71605593 1088.38834105 908.34875015 1088.40551758 902.98144531 C1088.40892761 901.91290371 1088.41233765 900.8443621 1088.41585102 899.74344045 C1088.47243098 882.43765572 1088.57493663 865.13243192 1088.6943926 847.82698005 C1088.81592861 830.07222159 1088.88816291 812.31775704 1088.91455668 794.56259966 C1088.93240213 783.60479455 1088.98877549 772.64857477 1089.09432032 761.69125766 C1089.16299759 754.17910187 1089.18381772 746.6677665 1089.16692416 739.15531951 C1089.15858936 734.81917043 1089.17142688 730.48579217 1089.24107742 726.15013504 C1089.30441458 722.17847137 1089.30751703 718.21143549 1089.26309188 714.23955733 C1089.257604 712.80460702 1089.27406361 711.3693665 1089.31488762 709.93498653 C1089.43395758 705.4923774 1089.29906333 701.66188696 1087.69140625 697.49609375 C1083.72218376 693.85668133 1079.57255483 691.78564767 1074.69140625 689.49609375 C1072.52137965 688.26198821 1070.35973467 687.01289701 1068.2109375 685.7421875 C1065.97640923 684.47063529 1063.74069239 683.20116993 1061.50390625 681.93359375 C1059.03323028 680.52843898 1056.56352519 679.12158102 1054.09375 677.71484375 C1053.47365051 677.36191757 1052.85355103 677.00899139 1052.21466064 676.64537048 C1045.9850254 673.09825319 1039.77390405 669.51929711 1033.56640625 665.93359375 C1031.97082886 665.01211548 1031.97082886 665.01211548 1030.34301758 664.07202148 C1028.19831038 662.83317152 1026.05369745 661.59415834 1023.90917969 660.35498047 C1018.50469984 657.23284772 1013.09795907 654.11463494 1007.69140625 650.99609375 C1001.2137374 647.2597246 994.73650642 643.52261028 988.26171875 639.78125 C976.45511141 632.96106738 964.63113625 626.17286115 952.78668213 619.41873169 C943.74668917 614.26192767 934.74615304 609.04065606 925.76464844 603.78271484 C918.14234847 599.32693031 910.48609314 594.93212229 902.81640625 590.55859375 C888.34190256 582.30443739 873.90918779 573.97892003 859.48242188 565.64160156 C856.2607235 563.78006703 853.03869546 561.91910536 849.81640625 560.05859375 C848.75035156 559.44306641 847.68429687 558.82753906 846.5859375 558.19335938 C838.00719113 553.24487482 829.40761681 548.33349952 820.80380249 543.42880249 C811.42095692 538.07834592 802.07643586 532.66469652 792.76708984 527.18725586 C788.16700558 524.48820588 783.54424352 521.84971234 778.85766602 519.30322266 C777.88491226 518.77419342 776.91215851 518.24516418 775.90992737 517.70010376 C775.1778154 517.30278046 774.44570343 516.90545715 773.69140625 516.49609375 Z M1461.328125 518.99609375 C1460.39307129 519.54515381 1459.45801758 520.09421387 1458.49462891 520.65991211 C1457.46644043 521.26585205 1456.43825195 521.87179199 1455.37890625 522.49609375 C1446.22332843 527.8657015 1437.03817277 533.17821296 1427.81640625 538.43359375 C1418.72024291 543.61987486 1409.63427835 548.82291186 1400.56640625 554.05859375 C1399.50035156 554.67412109 1398.43429687 555.28964844 1397.3359375 555.92382812 C1394.12083102 557.78079569 1390.90605247 559.63832954 1387.69140625 561.49609375 C1373.74296257 569.55698679 1359.78136737 577.59318801 1345.78668213 585.57345581 C1337.72877413 590.17003598 1329.69722839 594.80933535 1321.69140625 599.49609375 C1313.09617953 604.52790065 1304.46828495 609.49998447 1295.81640625 614.43359375 C1286.72060638 619.62051801 1277.63428362 624.82290881 1268.56640625 630.05859375 C1267.50035156 630.67412109 1266.43429687 631.28964844 1265.3359375 631.92382812 C1262.12083102 633.78079569 1258.90605247 635.63832954 1255.69140625 637.49609375 C1242.92529321 644.87371051 1230.15338401 652.24010554 1217.34509277 659.54425049 C1208.06007633 664.83927788 1198.79569575 670.16674568 1189.56640625 675.55859375 C1176.96882697 682.91823217 1164.32891091 690.20522568 1151.69140625 697.49609375 C1151.69140625 815.63609375 1151.69140625 933.77609375 1151.69140625 1055.49609375 C1159.56138071 1051.56110652 1167.15349491 1047.59595814 1174.69140625 1043.12109375 C1176.79751534 1041.88168732 1178.90431496 1040.64345372 1181.01171875 1039.40625 C1182.10258789 1038.76574707 1183.19345703 1038.12524414 1184.31738281 1037.46533203 C1190.04409001 1034.1229572 1195.80513657 1030.84086707 1201.56640625 1027.55859375 C1203.93901928 1026.20610979 1206.31140719 1024.85323182 1208.68359375 1023.5 C1209.56201935 1022.99889709 1209.56201935 1022.99889709 1210.45819092 1022.4876709 C1216.54793586 1019.01124917 1222.62035531 1015.50502435 1228.69140625 1011.99609375 C1237.71671471 1006.77966889 1246.76068428 1001.596944 1255.81640625 996.43359375 C1264.46836484 991.50012641 1273.0961813 986.52789962 1281.69140625 981.49609375 C1290.28663297 976.46428685 1298.91452755 971.49220303 1307.56640625 966.55859375 C1316.66220612 961.37166949 1325.74852888 956.16927869 1334.81640625 950.93359375 C1335.88246094 950.31806641 1336.94851563 949.70253906 1338.046875 949.06835938 C1341.26198148 947.21139181 1344.47676003 945.35385796 1347.69140625 943.49609375 C1361.63984993 935.43520071 1375.60144513 927.39899949 1389.59613037 919.41873169 C1398.62672279 914.26729015 1407.61923136 909.05366905 1416.58959961 903.7980957 C1422.02710537 900.61758243 1427.47949198 897.46544993 1432.953125 894.34765625 C1433.57148224 893.99531921 1434.18983948 893.64298218 1434.82693481 893.27996826 C1437.82078292 891.575018 1440.8164155 889.87336253 1443.81445312 888.17578125 C1445.95199173 886.96078573 1448.08079224 885.73021425 1450.19816905 884.48041391 C1452.48097699 883.14997333 1454.71538941 882.01572026 1457.11992091 880.88770056 C1463.8695036 877.55407102 1463.8695036 877.55407102 1467.88025439 871.41495228 C1468.33361614 867.55841521 1468.36486648 863.81324262 1468.25471497 859.94299316 C1468.26038897 858.45937862 1468.27178093 856.97577685 1468.28837413 855.49224424 C1468.31738135 851.42687554 1468.26555865 847.36597731 1468.20025933 843.30117846 C1468.14403163 838.91409805 1468.16312289 834.52726254 1468.17298889 830.1399231 C1468.1798004 822.54271346 1468.13907253 814.94695698 1468.06589699 807.35011292 C1467.96016941 796.36666413 1467.92638112 785.38391684 1467.9100531 774.40001434 C1467.88161221 756.57910355 1467.79513032 738.75896703 1467.67211914 720.93847656 C1467.55276162 703.62927114 1467.46075747 686.32027614 1467.40551758 669.01074219 C1467.40210217 667.94349956 1467.39868677 666.87625693 1467.39516786 665.77667361 C1467.37820218 660.42254251 1467.36177402 655.06840991 1467.34561312 649.71427631 C1467.21088112 605.30767918 1466.98194218 560.90192645 1466.69140625 516.49609375 C1464.74067192 516.49609375 1462.9515893 518.03884968 1461.328125 518.99609375 Z M736.30859375 932.84765625 C735.40149658 933.36175049 734.49439941 933.87584473 733.55981445 934.40551758 C732.57198975 934.97165771 731.58416504 935.53779785 730.56640625 936.12109375 C729.53668701 936.70721436 728.50696777 937.29333496 727.44604492 937.8972168 C719.27331133 942.5608871 711.14416045 947.2983187 703.02441406 952.0534668 C695.31646135 956.56297816 687.57415717 961.01050312 679.81640625 965.43359375 C670.72051704 970.62035997 661.63428234 975.82290955 652.56640625 981.05859375 C650.96732422 981.98188477 650.96732422 981.98188477 649.3359375 982.92382812 C646.12083102 984.78079569 642.90605247 986.63832954 639.69140625 988.49609375 C625.74296257 996.55698679 611.78136737 1004.59318801 597.78668213 1012.57345581 C589.72877413 1017.17003598 581.69722839 1021.80933535 573.69140625 1026.49609375 C565.09617953 1031.52790065 556.46828495 1036.49998447 547.81640625 1041.43359375 C538.72060638 1046.62051801 529.63428362 1051.82290881 520.56640625 1057.05859375 C518.96732422 1057.98188477 518.96732422 1057.98188477 517.3359375 1058.92382812 C514.12083102 1060.78079569 510.90605247 1062.63832954 507.69140625 1064.49609375 C493.74296257 1072.55698679 479.78136737 1080.59318801 465.78668213 1088.57345581 C457.72877413 1093.17003598 449.69722839 1097.80933535 441.69140625 1102.49609375 C433.09617953 1107.52790065 424.46828495 1112.49998447 415.81640625 1117.43359375 C406.72060638 1122.62051801 397.63428362 1127.82290881 388.56640625 1133.05859375 C387.50035156 1133.67412109 386.43429687 1134.28964844 385.3359375 1134.92382812 C382.12083102 1136.78079569 378.90605247 1138.63832954 375.69140625 1140.49609375 C361.74296257 1148.55698679 347.78136737 1156.59318801 333.78668213 1164.57345581 C325.72877413 1169.17003598 317.69722839 1173.80933535 309.69140625 1178.49609375 C301.09617953 1183.52790065 292.46828495 1188.49998447 283.81640625 1193.43359375 C274.72060638 1198.62051801 265.63428362 1203.82290881 256.56640625 1209.05859375 C255.50035156 1209.67412109 254.43429687 1210.28964844 253.3359375 1210.92382812 C250.12083102 1212.78079569 246.90605247 1214.63832954 243.69140625 1216.49609375 C229.74296257 1224.55698679 215.78136737 1232.59318801 201.78668213 1240.57345581 C193.72877413 1245.17003598 185.69722839 1249.80933535 177.69140625 1254.49609375 C169.09617953 1259.52790065 160.46828495 1264.49998447 151.81640625 1269.43359375 C142.72060638 1274.62051801 133.63428362 1279.82290881 124.56640625 1285.05859375 C122.96732422 1285.98188477 122.96732422 1285.98188477 121.3359375 1286.92382812 C118.12083102 1288.78079569 114.90605247 1290.63832954 111.69140625 1292.49609375 C107.40017851 1294.97602116 103.1085636 1297.45527559 98.81640625 1299.93359375 C97.76195312 1300.54259521 96.7075 1301.15159668 95.62109375 1301.77905273 C89.79367374 1305.14119541 83.95846065 1308.48917432 78.11328125 1311.8203125 C77.16514053 1312.36089546 77.16514053 1312.36089546 76.19784546 1312.91239929 C73.14248655 1314.65412599 70.08609138 1316.39398641 67.02783203 1318.13061523 C61.16710915 1321.46829221 55.37713477 1324.86779267 49.69140625 1328.49609375 C52.60154207 1330.77691957 55.57943386 1332.63911563 58.8125 1334.4296875 C60.32287842 1335.26995483 60.32287842 1335.26995483 61.86376953 1336.12719727 C62.94126465 1336.72330811 64.01875977 1337.31941895 65.12890625 1337.93359375 C67.40666611 1339.20107542 69.6840037 1340.46931623 71.9609375 1341.73828125 C73.66757568 1342.68912598 73.66757568 1342.68912598 75.40869141 1343.65917969 C80.0616092 1346.26282043 84.69138814 1348.90579354 89.31640625 1351.55859375 C96.553658 1355.70637945 103.80317409 1359.83145639 111.06640625 1363.93359375 C112.02667725 1364.4759668 112.98694824 1365.01833984 113.97631836 1365.57714844 C117.81524272 1367.74472406 121.65468939 1369.91137171 125.49462891 1372.07714844 C137.4709062 1378.83234965 149.42426795 1385.62605725 161.35653687 1392.45864868 C170.62561936 1397.76431656 179.93073201 1403.00281899 189.25732422 1408.20678711 C197.69435327 1412.92120538 206.08683186 1417.71118547 214.47216797 1422.51660156 C222.68633749 1427.22265968 230.92434379 1431.88338884 239.19140625 1436.49609375 C248.65354935 1441.77560799 258.07126364 1447.12918998 267.47216797 1452.51660156 C275.68633749 1457.22265968 283.92434379 1461.88338884 292.19140625 1466.49609375 C301.05601745 1471.44220803 309.88390677 1476.44928175 318.69140625 1481.49609375 C327.96122289 1486.80629951 337.2482271 1492.08360061 346.56640625 1497.30859375 C347.60023438 1497.88931641 348.6340625 1498.47003906 349.69921875 1499.06835938 C350.6634375 1499.60783203 351.62765625 1500.14730469 352.62109375 1500.703125 C353.45882324 1501.17210205 354.29655273 1501.6410791 355.15966797 1502.12426758 C355.9951416 1502.57697021 356.83061523 1503.02967285 357.69140625 1503.49609375 C358.66787109 1504.10324219 359.64433594 1504.71039062 360.65039062 1505.3359375 C363.63131111 1506.83206547 363.63131111 1506.83206547 366.49853516 1505.62182617 C367.46194824 1505.03763916 368.42536133 1504.45345215 369.41796875 1503.8515625 C370.51753906 1503.20251953 371.61710937 1502.55347656 372.75 1501.88476562 C373.9389185 1501.15123033 375.12771726 1500.41750092 376.31640625 1499.68359375 C377.56358538 1498.93820807 378.81231379 1498.19540915 380.0625 1497.45507812 C382.66010266 1495.91410847 385.25066443 1494.36218893 387.83691406 1492.80224609 C393.72813302 1489.26134764 399.7133358 1485.88766986 405.69140625 1482.49609375 C408.02575866 1481.16454149 410.35857769 1479.83031347 412.69140625 1478.49609375 C413.85804475 1477.8293778 415.02471141 1477.16271111 416.19140625 1476.49609375 C416.76890625 1476.16609375 417.34640625 1475.83609375 417.94140625 1475.49609375 C563.19140613 1392.49609382 563.19140613 1392.49609382 564.94132996 1391.49613953 C566.10825344 1390.82932465 567.27517442 1390.1625054 568.4420929 1389.49568176 C571.35480976 1387.83124674 574.2675698 1386.16688736 577.18041992 1384.50268555 C582.47759013 1381.47614798 587.77441869 1378.44901953 593.06967163 1375.41912842 C596.04754019 1373.71525028 599.02568397 1372.01185354 602.00390625 1370.30859375 C602.58813354 1369.97442444 603.17236084 1369.64025513 603.77429199 1369.29595947 C611.64787512 1364.79337529 619.5380092 1360.32113422 627.44140625 1355.87109375 C635.15283976 1351.52877853 642.80968577 1347.10188607 650.44140625 1342.62109375 C660.0847633 1336.96141034 669.83017491 1331.50650407 679.61962891 1326.10424805 C688.07862311 1321.42386316 696.43961582 1316.5943226 704.7734375 1311.6953125 C711.86301773 1307.53709107 719.0094672 1303.49243245 726.19140625 1299.49609375 C734.41343215 1294.92042975 742.57722055 1290.26038627 750.69140625 1285.49609375 C759.84053914 1280.12412582 769.06543756 1274.9053285 778.3359375 1269.74609375 C785.5049432 1265.74644923 792.61233388 1261.65261331 799.69140625 1257.49609375 C808.84194686 1252.12329926 818.06809 1246.90336935 827.34033203 1241.74389648 C834.46768892 1237.7679374 841.53079717 1233.69445377 848.56640625 1229.55859375 C858.16706129 1223.91710212 867.87092877 1218.48396761 877.62011719 1213.10400391 C886.07892437 1208.42365788 894.43977265 1203.59423041 902.7734375 1198.6953125 C909.86301773 1194.53709107 917.0094672 1190.49243245 924.19140625 1186.49609375 C932.41343215 1181.92042975 940.57722055 1177.26038627 948.69140625 1172.49609375 C957.84053914 1167.12412582 967.06543756 1161.9053285 976.3359375 1156.74609375 C983.50494582 1152.74644776 990.6122721 1148.65251123 997.69140625 1144.49609375 C1006.8953635 1139.09355747 1016.16957539 1133.83148941 1025.49194336 1128.63623047 C1035.60266978 1122.99985086 1045.65385188 1117.2615651 1055.69140625 1111.49609375 C1052.25909016 1108.61805986 1048.8240947 1106.31969923 1044.89453125 1104.17578125 C1043.78005615 1103.56347656 1042.66558105 1102.95117188 1041.51733398 1102.3203125 C1040.93394257 1102.00239746 1040.35055115 1101.68448242 1039.7494812 1101.35693359 C1036.67851271 1099.68251014 1033.61676864 1097.99138704 1030.5546875 1096.30078125 C1029.951371 1095.96802185 1029.3480545 1095.63526245 1028.72645569 1095.29241943 C1024.15103826 1092.76367257 1019.62173114 1090.16833791 1015.12890625 1087.49609375 C1008.24149117 1083.40296212 1001.3195709 1079.37336733 994.37890625 1075.37109375 C993.27812744 1074.73631104 992.17734863 1074.10152832 991.04321289 1073.44750977 C982.30533324 1068.41466704 973.54861775 1063.41524191 964.78915405 1058.42010498 C955.74833284 1053.26284932 946.74696713 1048.04113265 937.76464844 1042.78271484 C930.14234847 1038.32693031 922.48609314 1033.93212229 914.81640625 1029.55859375 C900.34190256 1021.30443739 885.90918779 1012.97892003 871.48242188 1004.64160156 C868.2607235 1002.78006703 865.03869546 1000.91910536 861.81640625 999.05859375 C860.75035156 998.44306641 859.68429687 997.82753906 858.5859375 997.19335938 C850.00145028 992.24156333 841.39560332 987.32784507 832.78668213 982.41873169 C823.74668917 977.26192767 814.74615304 972.04065606 805.76464844 966.78271484 C796.98148963 961.64832452 788.15203663 956.59635543 779.31103516 951.5625 C773.26139853 948.11646714 767.22386253 944.65148835 761.20703125 941.1484375 C759.99594529 940.44455546 758.78484527 939.74069764 757.57373047 939.03686523 C755.27571924 937.70112094 752.98114704 936.35998033 750.68798828 935.01586914 C749.66560059 934.42153076 748.64321289 933.82719238 747.58984375 933.21484375 C746.68927246 932.68826172 745.78870117 932.16167969 744.86083984 931.61914062 C741.18783391 929.7177421 739.72595881 930.90264094 736.30859375 932.84765625 Z M1082.22265625 1169.06640625 C1081.27197266 1169.62585937 1080.32128906 1170.1853125 1079.34179688 1170.76171875 C1078.30216797 1171.3753125 1077.26253906 1171.98890625 1076.19140625 1172.62109375 C1067.57821834 1177.67856778 1058.92107874 1182.64183335 1050.19140625 1187.49609375 C1041.96923811 1192.07149752 1033.80558612 1196.73180465 1025.69140625 1201.49609375 C1016.54227336 1206.86806168 1007.31737494 1212.086859 998.046875 1217.24609375 C990.8778693 1221.24573827 983.77047862 1225.33957419 976.69140625 1229.49609375 C967.54086564 1234.86888824 958.3147225 1240.08881815 949.04248047 1245.24829102 C941.91512358 1249.2242501 934.85201533 1253.29773373 927.81640625 1257.43359375 C918.21575121 1263.07508538 908.51188373 1268.50821989 898.76269531 1273.88818359 C890.30388813 1278.56852962 881.94303985 1283.39795709 873.609375 1288.296875 C866.51979477 1292.45509643 859.3733453 1296.49975505 852.19140625 1300.49609375 C843.96938035 1305.07175775 835.80559195 1309.73180123 827.69140625 1314.49609375 C818.54227336 1319.86806168 809.31737494 1325.086859 800.046875 1330.24609375 C792.8778693 1334.24573827 785.77047862 1338.33957419 778.69140625 1342.49609375 C769.54086564 1347.86888824 760.3147225 1353.08881815 751.04248047 1358.24829102 C743.91512358 1362.2242501 736.85201533 1366.29773373 729.81640625 1370.43359375 C720.21575121 1376.07508538 710.51188373 1381.50821989 700.76269531 1386.88818359 C692.30388813 1391.56852962 683.94303985 1396.39795709 675.609375 1401.296875 C668.51979477 1405.45509643 661.3733453 1409.49975505 654.19140625 1413.49609375 C645.96938035 1418.07175775 637.80559195 1422.73180123 629.69140625 1427.49609375 C620.54227336 1432.86806168 611.31737494 1438.086859 602.046875 1443.24609375 C594.8778693 1447.24573827 587.77047862 1451.33957419 580.69140625 1455.49609375 C571.54086564 1460.86888824 562.3147225 1466.08881815 553.04248047 1471.24829102 C545.91512358 1475.2242501 538.85201533 1479.29773373 531.81640625 1483.43359375 C522.21575121 1489.07508538 512.51188373 1494.50821989 502.76269531 1499.88818359 C494.30388813 1504.56852962 485.94303985 1509.39795709 477.609375 1514.296875 C470.51979477 1518.45509643 463.3733453 1522.49975505 456.19140625 1526.49609375 C447.96880073 1531.07208032 439.80903798 1535.7360165 431.69140625 1540.49609375 C419.44184244 1547.64167264 407.06473246 1554.56703107 394.69140625 1561.49609375 C394.69140625 1680.95609375 394.69140625 1800.41609375 394.69140625 1923.49609375 C402.60031237 1919.54164069 410.23715785 1915.55206075 417.81640625 1911.05859375 C419.92804792 1909.81713409 422.04003919 1908.57626893 424.15234375 1907.3359375 C425.77027832 1906.38436768 425.77027832 1906.38436768 427.42089844 1905.41357422 C432.74666491 1902.29110707 438.09292313 1899.20444221 443.44140625 1896.12109375 C444.51390625 1895.50250488 445.58640625 1894.88391602 446.69140625 1894.24658203 C455.31223979 1889.27962019 463.95279861 1884.34761604 472.59558105 1879.41900635 C480.65367546 1874.82233937 488.68540716 1870.18295575 496.69140625 1865.49609375 C505.28663297 1860.46428685 513.91452755 1855.49220303 522.56640625 1850.55859375 C531.66220612 1845.37166949 540.74852888 1840.16927869 549.81640625 1834.93359375 C550.88246094 1834.31806641 551.94851563 1833.70253906 553.046875 1833.06835938 C556.26198148 1831.21139181 559.47676003 1829.35385796 562.69140625 1827.49609375 C576.63984993 1819.43520071 590.60144513 1811.39899949 604.59613037 1803.41873169 C612.65403837 1798.82215152 620.68558411 1794.18285215 628.69140625 1789.49609375 C637.28663297 1784.46428685 645.91452755 1779.49220303 654.56640625 1774.55859375 C663.66220612 1769.37166949 672.74852888 1764.16927869 681.81640625 1758.93359375 C682.88246094 1758.31806641 683.94851563 1757.70253906 685.046875 1757.06835938 C688.26198148 1755.21139181 691.47676003 1753.35385796 694.69140625 1751.49609375 C708.63984993 1743.43520071 722.60144513 1735.39899949 736.59613037 1727.41873169 C744.65403837 1722.82215152 752.68558411 1718.18285215 760.69140625 1713.49609375 C770.4664339 1707.77360926 780.28927581 1702.13765935 790.12890625 1696.52734375 C797.9967803 1692.04053638 805.84966027 1687.52844617 813.69140625 1682.99609375 C822.71671471 1677.77966889 831.76068428 1672.596944 840.81640625 1667.43359375 C849.46836484 1662.50012641 858.0961813 1657.52789962 866.69140625 1652.49609375 C875.28663297 1647.46428685 883.91452755 1642.49220303 892.56640625 1637.55859375 C901.66220612 1632.37166949 910.74852888 1627.16927869 919.81640625 1621.93359375 C921.41548828 1621.01030273 921.41548828 1621.01030273 923.046875 1620.06835938 C926.26198148 1618.21139181 929.47676003 1616.35385796 932.69140625 1614.49609375 C946.63984993 1606.43520071 960.60144513 1598.39899949 974.59613037 1590.41873169 C982.65403837 1585.82215152 990.68558411 1581.18285215 998.69140625 1576.49609375 C1007.28663647 1571.4642848 1015.9146875 1566.49248717 1024.56640625 1561.55859375 C1042.18473509 1551.50884699 1059.78121132 1541.42267361 1077.25390625 1531.12109375 C1078.19476074 1530.56719971 1079.13561523 1530.01330566 1080.10498047 1529.44262695 C1080.95979004 1528.93691162 1081.81459961 1528.43119629 1082.6953125 1527.91015625 C1083.44627197 1527.46623535 1084.19723145 1527.02231445 1084.97094727 1526.56494141 C1086.65291682 1525.61041171 1086.65291682 1525.61041171 1087.69140625 1524.49609375 C1087.78906413 1522.59346798 1087.81511951 1520.68715753 1087.81445408 1518.78202724 C1087.81644513 1517.53298058 1087.81843618 1516.28393391 1087.82048756 1514.99703735 C1087.81763397 1513.59294964 1087.81468836 1512.18886212 1087.81166077 1510.78477478 C1087.81209634 1509.30723301 1087.81297099 1507.82969131 1087.81424993 1506.35215002 C1087.81649766 1502.27263618 1087.81246984 1498.19314833 1087.80747187 1494.1136378 C1087.80317151 1489.72165797 1087.8046135 1485.32967971 1087.80537415 1480.93769836 C1087.80589965 1473.32186979 1087.80275014 1465.70604974 1087.79713631 1458.09022331 C1087.78902481 1447.07888465 1087.78640645 1436.06755013 1087.78514832 1425.0562088 C1087.78295724 1407.19298777 1087.77629566 1389.32977129 1087.7668457 1371.46655273 C1087.75767301 1354.10945661 1087.75059148 1336.75236173 1087.74633789 1319.39526367 C1087.74607517 1318.32618198 1087.74581244 1317.25710029 1087.74554176 1316.15562218 C1087.74423676 1310.79259531 1087.74297305 1305.42956843 1087.74172986 1300.06654155 C1087.73135552 1255.5430558 1087.71373571 1211.01957501 1087.69140625 1166.49609375 C1085.71479028 1166.49609375 1083.86277537 1168.09647373 1082.22265625 1169.06640625 Z " fill="#FF2C1F" transform="translate(425.30859375,2.50390625)"/>
</svg>
