<?xml version="1.0" encoding="UTF-8"?>
<svg version="1.1" xmlns="http://www.w3.org/2000/svg" width="2560" height="1381">
<path d="M0 0 C2.10884707 -0.00072862 4.21768824 -0.00289548 6.32653379 -0.00549722 C13.79118445 -0.01466476 21.25581767 -0.01884411 28.72047377 -0.01804566 C34.75630837 -0.01751633 40.79207764 -0.02450916 46.82789564 -0.03855348 C84.33432921 -0.12376387 121.73812465 0.27919873 159.20826674 2.16725707 C160.7579893 2.243739 162.30771256 2.32020677 163.85743666 2.39665771 C172.5417656 2.83083501 181.21932778 3.34766776 189.89576674 3.91725707 C191.17238173 3.99962615 192.44899672 4.08199523 193.76429701 4.16686034 C290.89755234 10.46357677 387.73180857 22.7399732 577.76356459 63.54860473 C581.27024888 64.43600054 584.78221009 65.30111431 588.29420424 66.16725707 C684.00671894 90.00294992 778.03249388 122.99696059 867.20826674 165.16725707 C868.21115736 165.64050414 869.21404799 166.11375121 870.24732924 166.6013391 C877.59135365 170.07495934 884.90778437 173.60309144 892.20826674 177.16725707 C892.80055067 177.45620849 893.39283461 177.7451599 894.00306654 178.04286742 C910.50245139 186.0991864 926.70087189 194.5049277 942.6101222 203.68678832 C945.8768156 205.54820805 949.18055394 207.33496624 952.49024916 209.11842895 C1001.26879348 235.45577349 1047.61738988 267.75941115 1090.20826674 303.16725707 C1090.79575697 303.65565063 1091.3832472 304.14404418 1091.98854017 304.64723754 C1098.33707414 309.94123912 1104.58811424 315.33056503 1110.69654799 320.90163207 C1112.78114841 322.78198704 1114.88631425 324.63058566 1117.00514174 326.47194457 C1127.48540029 335.62705681 1137.47781579 345.34775505 1147.33326674 355.16725707 C1148.01896742 355.84836547 1148.7046681 356.52947387 1149.41114759 357.23122191 C1153.29759603 361.1295759 1156.99556465 365.13806273 1160.59156752 369.30544066 C1162.86288046 371.92112059 1165.22208152 374.44485103 1167.58326674 376.97975707 C1171.8201309 381.57150388 1175.86232556 386.27679821 1179.77857924 391.14772582 C1181.56990934 393.37392867 1183.37564976 395.58213823 1185.20045424 397.78053832 C1240.41918688 464.52836463 1282.77812933 551.66631678 1283.44654799 639.67506957 C1283.46123877 641.28266395 1283.46123877 641.28266395 1283.47622633 642.92273498 C1283.78589574 685.62685914 1279.2583497 725.27359296 1266.20826674 766.16725707 C1265.93933607 767.01127074 1265.67040541 767.85528441 1265.39332533 768.72487426 C1248.25361821 821.66403079 1219.02903011 869.1372764 1184.20826674 912.16725707 C1183.50057142 913.05026488 1182.79287611 913.9332727 1182.06373549 914.84303832 C1177.40857044 920.60696422 1172.57303892 926.14948683 1167.55592299 931.60085082 C1165.50502575 933.84284663 1163.5034914 936.11516736 1161.52076674 938.41725707 C1158.79293515 941.56033234 1155.91037073 944.48642925 1152.94264174 947.40163207 C1151.19624254 949.17949791 1149.57607434 951.02211102 1147.95826674 952.91725707 C1141.54350174 960.34108622 1134.49479979 967.19094837 1127.03639174 973.55788207 C1125.17888685 975.19312141 1123.44220664 976.902075 1121.70826674 978.66725707 C1118.0455587 982.37912897 1114.16847244 985.77737225 1110.20826674 989.16725707 C1109.15344291 990.07465071 1108.09876687 990.98221615 1107.04420424 991.88991332 C1104.03316956 994.47930113 1101.01464767 997.05981781 1097.99439955 999.63844848 C1096.3294451 1001.06353661 1094.67050592 1002.49529185 1093.01295424 1003.92897582 C1085.09557336 1010.74582336 1076.88439136 1017.12676284 1068.5398097 1023.41090941 C1066.11457556 1025.23783449 1063.69457703 1027.07156058 1061.27467299 1028.90553832 C1014.97581362 1063.9096982 965.40393988 1094.21686409 913.83521986 1120.80299926 C911.40303232 1122.06610929 908.98288811 1123.34867235 906.56764174 1124.64381957 C857.75919361 1150.80050998 806.14705014 1172.11058114 754.20826674 1191.16725707 C752.97366713 1191.6206848 752.97366713 1191.6206848 751.71412611 1192.0832727 C697.69366426 1211.89772781 642.88682253 1228.68675355 587.20826674 1243.16725707 C586.34239943 1243.39306457 585.47653212 1243.61887206 584.5844264 1243.85152221 C472.93450575 1272.93901283 358.26833621 1291.41531812 158.14576674 1306.91725707 C156.95736189 1306.97642303 155.76895704 1307.03558898 154.54453993 1307.09654784 C147.59623816 1307.43654131 140.64717034 1307.74575713 133.69621229 1308.02623534 C131.40163035 1308.11900798 129.10716854 1308.21480991 126.81285048 1308.31389403 C100.6859854 1309.42104915 74.54607735 1309.35468221 48.40040541 1309.3525598 C43.27178828 1309.35247921 38.14326176 1309.35932993 33.01466322 1309.37306762 C-13.79491972 1309.49627334 -60.51108427 1308.35936926 -107.22923326 1305.35475707 C-108.57196603 1305.27010292 -109.91470925 1305.18561425 -111.25746202 1305.10127807 C-139.48294468 1303.32143566 -167.65024529 1300.98196943 -195.79173326 1298.16725707 C-196.88906786 1298.05788817 -197.98640245 1297.94851928 -199.11698961 1297.83583617 C-287.93081022 1288.93660324 -376.52107893 1274.86021386 -482.35276842 1249.7631433 C-485.4349381 1249.0101097 -488.52087242 1248.27337586 -491.60708666 1247.53713012 C-579.59202604 1226.50525563 -666.319018 1197.77296045 -796.79173326 1140.16725707 C-797.45211596 1139.85403502 -798.11249865 1139.54081298 -798.79289293 1139.21809936 C-815.94385184 1131.07654276 -832.88737276 1122.7199432 -849.46458483 1113.45192504 C-852.32760928 1111.87143462 -855.22223953 1110.3584645 -858.12498522 1108.8525598 C-884.02468874 1095.40255234 -909.59987094 1080.08351282 -933.69114733 1063.58864379 C-936.30108156 1061.82260042 -938.93270996 1060.09094599 -941.56517076 1058.35866332 C-951.10900972 1052.06896152 -960.58533286 1045.82055965 -969.54173326 1038.71022582 C-973.63587225 1035.46598622 -977.88251156 1032.4296216 -982.10423326 1029.35475707 C-990.30302963 1023.35645399 -998.227946 1017.08305157 -1006.05052233 1010.60426879 C-1008.57331046 1008.52222575 -1011.12265096 1006.47318913 -1013.66673326 1004.41725707 C-1018.04862242 1000.83028334 -1022.27240089 997.09587772 -1026.45970201 993.28444457 C-1028.54997216 991.38674538 -1030.66159441 989.51992292 -1032.79173326 987.66725707 C-1040.47334178 980.95915934 -1047.98354991 974.08622228 -1055.41673326 967.10475707 C-1056.4733214 966.11391112 -1056.4733214 966.11391112 -1057.55125475 965.10304809 C-1064.36038467 958.68805149 -1070.97632583 952.1974249 -1077.07688951 945.10085082 C-1078.75177626 943.2123111 -1080.49120913 941.43570059 -1082.29173326 939.66725707 C-1086.00369031 936.00457379 -1089.40785981 932.13273377 -1092.79173326 928.16725707 C-1093.61673326 927.20819457 -1094.44173326 926.24913207 -1095.29173326 925.26100707 C-1101.52208056 917.98683196 -1107.54489877 910.57021916 -1113.39134264 902.9841516 C-1114.31956129 901.77986235 -1115.25052363 900.57768249 -1116.18431139 899.37770629 C-1129.25424277 882.54948796 -1141.30267558 864.72206926 -1151.79173326 846.16725707 C-1152.23936022 845.37738402 -1152.68698717 844.58751098 -1153.14817858 843.77370238 C-1178.31551269 799.09706724 -1196.17200159 751.18049578 -1202.79173326 700.16725707 C-1202.87893633 699.51930175 -1202.96613939 698.87134643 -1203.05598497 698.20375609 C-1204.94372048 683.86502126 -1205.15077503 669.6144583 -1205.10423326 655.16725707 C-1205.10241045 653.99472381 -1205.10058764 652.82219054 -1205.09870958 651.61412597 C-1205.05418889 634.61635584 -1204.67633323 617.95703597 -1201.79173326 601.16725707 C-1201.62012682 600.11828246 -1201.44852037 599.06930785 -1201.27171373 597.98854613 C-1189.61367263 527.95695337 -1157.94573632 464.05522824 -1114.79173326 408.16725707 C-1114.33878893 407.57541625 -1113.88584459 406.98357543 -1113.41917467 406.37380004 C-1103.3376196 393.21086352 -1092.42959667 380.79343021 -1081.1555028 368.64430785 C-1079.77405374 367.148109 -1078.40476585 365.64155952 -1077.03782701 364.13210082 C-1071.19160133 357.69813807 -1065.17796615 351.45055312 -1059.04173326 345.29225707 C-1058.34483385 344.59076537 -1057.64793444 343.88927367 -1056.92991686 343.16652465 C-1052.99153694 339.23981331 -1048.9496419 335.50069582 -1044.73851061 331.86891723 C-1041.56892942 329.09841548 -1038.53429217 326.18761417 -1035.47923326 323.29225707 C-1030.31243706 318.43372543 -1025.05556946 313.78657774 -1019.51048326 309.35866332 C-1017.05516671 307.37959351 -1014.65471158 305.34810134 -1012.2648778 303.29079223 C-1004.68260641 296.77416241 -996.77982551 290.72122692 -988.80491686 284.69557738 C-986.41881824 282.88415641 -984.05246327 281.04840772 -981.68772936 279.20924926 C-932.91417348 241.33943313 -878.6143404 210.30157975 -823.79173326 182.16725707 C-822.68394518 181.59636352 -821.57615709 181.02546996 -820.43479967 180.4372766 C-801.22342451 170.56748289 -781.68552765 161.60501632 -761.89378405 152.96413207 C-758.25596466 151.374096 -754.62939716 149.75997344 -751.00657701 148.13600707 C-722.1109228 135.20636438 -692.48828087 124.09771756 -662.79173326 113.16725707 C-662.07666613 112.90320067 -661.36159899 112.63914428 -660.62486315 112.36708617 C-606.92958759 92.54715165 -551.6956906 76.47147193 -496.1443944 62.748739 C-493.67572264 62.13858397 -491.20786523 61.52519556 -488.73997545 60.91188598 C-389.97109207 36.43267946 -289.45696525 20.02014545 -77.10423326 1.97975707 C-76.37183428 1.94282744 -75.63943529 1.90589782 -74.8848424 1.86784911 C-49.92710054 0.63335561 -24.98736395 0.00489832 0 0 Z " fill="#7579B0" transform="translate(1240.791733264923,35.83274292945862)"/>
<path d="M0 0 C1.50248049 -0.00707055 3.00495386 -0.01582032 4.50741577 -0.02610779 C8.56120296 -0.04848249 12.61459753 -0.04569053 16.6684227 -0.03678632 C20.06296685 -0.03165273 23.45743874 -0.03898799 26.85197544 -0.04625839 C34.86394715 -0.06321897 42.87572822 -0.05972979 50.88769531 -0.04296875 C59.13239307 -0.02604311 67.37656152 -0.04189655 75.62120152 -0.07419163 C82.721328 -0.10094205 89.82129027 -0.1081491 96.92146206 -0.09967655 C101.1527272 -0.09476417 105.38367393 -0.09687108 109.61489868 -0.11746407 C113.59444956 -0.13590791 117.57324255 -0.12975767 121.55275345 -0.10526466 C123.00630954 -0.10028455 124.45992428 -0.10367324 125.91343307 -0.11641312 C136.10597357 -0.19862907 143.67385082 1.05651363 151.54296875 7.81469727 C152.15140625 8.54688477 152.75984375 9.27907227 153.38671875 10.03344727 C154.01578125 10.76563477 154.64484375 11.49782227 155.29296875 12.25219727 C160.89295855 20.26786894 159.58753299 30.25999618 157.98703003 39.46881104 C157.31226108 43.04197199 156.57198538 46.59997604 155.82421875 50.15844727 C155.50377467 51.73497946 155.18479683 53.31181029 154.8671875 54.88891602 C154.20858606 58.1534385 153.54380348 61.41660826 152.87451172 64.67895508 C151.47095767 71.5448463 150.14484898 78.42559478 148.81689453 85.306427 C148.09465165 89.04547882 147.36758834 92.78359209 146.640625 96.52172852 C146.4964212 97.26371994 146.35221741 98.00571136 146.2036438 98.77018738 C145.32286959 103.29972096 144.43776014 107.8283855 143.54928589 112.35641479 C142.94968914 115.41316889 142.35175588 118.47024753 141.75390625 121.52734375 C141.48013771 122.92496326 141.20563935 124.32244015 140.93017578 125.71972656 C137.72979613 141.95604751 134.82885051 158.24881448 131.88671875 174.53344727 C132.45798744 174.53068189 133.02925613 174.52791651 133.617836 174.52506733 C147.73522031 174.45783874 161.85259006 174.40870841 175.9701004 174.37801075 C182.79816075 174.36275845 189.62611106 174.34201497 196.45410156 174.30712891 C275.5578708 173.91745656 275.5578708 173.91745656 311.34716797 181.03930664 C313.83531204 181.52344465 316.32717501 181.94931135 318.828125 182.36157227 C357.62848556 189.02747421 398.60829576 206.91743222 422.77734375 239.26782227 C437.59430108 260.24351863 446.38197758 284.90499337 447.88671875 310.53344727 C450.23711179 300.72637937 452.23818581 290.8731783 454.13671875 280.97094727 C454.44034725 279.39684396 454.74422635 277.82278897 455.04833984 276.2487793 C455.67932603 272.98203274 456.3092438 269.71508277 456.93847656 266.44799805 C457.86107082 261.66161124 458.79066839 256.87660661 459.72265625 252.09204102 C459.87168396 251.32674576 460.02071167 250.5614505 460.17425537 249.77296448 C460.76707426 246.72927523 461.36009855 243.68562639 461.95385742 240.64212036 C463.43534728 233.0474238 464.90794404 225.45164251 466.33203125 217.84594727 C466.5542334 216.66597168 466.77643555 215.48599609 467.00537109 214.27026367 C467.40874615 212.12236167 467.80793015 209.97366555 468.20166016 207.82397461 C470.38492331 196.22624577 472.68674951 186.9489166 481.8125 178.92797852 C488.8838883 174.1737683 495.04742036 174.1087632 503.3809967 174.16595459 C504.64047841 174.16268575 505.89996012 174.15941691 507.19760793 174.15604901 C510.68199054 174.14742314 514.16610541 174.15744559 517.65046465 174.17059135 C521.41259651 174.18150844 525.17470417 174.17507335 528.93684387 174.17080688 C536.3020281 174.16517777 543.66710808 174.17548009 551.03227455 174.19109485 C559.60979559 174.20864344 568.18729648 174.2100543 576.76483267 174.21071044 C592.0689116 174.21239799 607.37294309 174.22820699 622.67700195 174.25219727 C637.52694085 174.27545877 652.37684967 174.28962266 667.22680664 174.29321289 C668.1415698 174.29343566 669.05633295 174.29365843 669.9988162 174.29388794 C671.84163443 174.29433054 673.68445265 174.29477257 675.52727088 174.29521401 C676.43632349 174.29543358 677.34537609 174.29565314 678.28197575 174.29587936 C679.64211527 174.29620334 679.64211527 174.29620334 681.02973235 174.29653387 C695.18282075 174.30023537 709.3359043 174.31159464 723.48898738 174.32400976 C728.61814298 174.32844336 733.74729813 174.33188232 738.8764549 174.33463189 C747.01184586 174.33906586 755.1472189 174.34684474 763.28259856 174.3614063 C766.99975782 174.36800882 770.71690133 174.3730785 774.43406677 174.37386703 C778.46254119 174.37479972 782.49096115 174.38349043 786.51942444 174.39300537 C787.69558463 174.39213889 788.87174482 174.39127241 790.08354622 174.39037967 C791.16406146 174.39422081 792.24457669 174.39806196 793.35783482 174.4020195 C794.75217191 174.40388925 794.75217191 174.40388925 796.17467743 174.40579677 C799.1417188 174.54544962 801.96548543 175.00776128 804.88671875 175.53344727 C806.45509554 175.66669645 808.02578531 175.775308 809.59765625 175.85766602 C844.68724481 178.02656586 879.11932611 186.31023569 910.88671875 201.53344727 C911.69786133 201.92113281 912.50900391 202.30881836 913.34472656 202.70825195 C947.39218254 219.23785185 976.16661053 245.58284993 994.88671875 278.53344727 C995.54027344 279.65493164 996.19382812 280.77641602 996.8671875 281.93188477 C1024.5776628 330.67496617 1025.0812719 389.48073695 1016.01171875 443.28344727 C1015.88883484 444.01403351 1015.76595093 444.74461975 1015.63934326 445.49734497 C1012.84655958 461.928955 1009.10427039 477.86450551 1003.76171875 493.65844727 C1003.52372559 494.36723022 1003.28573242 495.07601318 1003.04052734 495.80627441 C984.74027563 550.10289053 951.04851178 602.82256521 905.4765625 638.49047852 C903.74329174 639.85774941 902.04705277 641.27324687 900.390625 642.73266602 C877.25121304 663.05101759 849.42834994 677.48755869 820.88671875 688.53344727 C820.10458008 688.84008301 819.32244141 689.14671875 818.51660156 689.46264648 C807.80727638 693.62046898 796.90885592 696.45868441 785.69628906 698.91577148 C782.83666777 699.54445083 779.98310961 700.19706618 777.12890625 700.84985352 C763.18428342 703.96869563 749.24519376 706.00941986 735.02017498 707.32933807 C733.54162688 707.47079176 732.06370787 707.61891923 730.58635426 707.7723465 C713.1124581 709.57918885 695.72751333 709.80420177 678.1831913 709.73623514 C674.3235919 709.72349822 670.46398729 709.72253962 666.60437012 709.72018433 C659.33778317 709.71403552 652.07125838 709.69771687 644.80469847 709.67748535 C636.5141029 709.6549173 628.22350394 709.64408107 619.93288517 709.63409448 C602.91746077 709.61334251 585.90209638 709.57829904 568.88671875 709.53344727 C568.82539355 710.12373907 568.76406836 710.71403088 568.70088482 711.32221031 C568.25758653 715.46868904 567.78102115 719.56298302 566.95043945 723.65307617 C566.76944702 724.55455383 566.58845459 725.45603149 566.40197754 726.38482666 C566.11018616 727.8080423 566.11018616 727.8080423 565.8125 729.26000977 C565.50608582 730.77942169 565.50608582 730.77942169 565.19348145 732.32952881 C564.75757969 734.48920888 564.31996555 736.64854394 563.88076782 738.80755615 C562.72910142 744.46981713 561.59021485 750.1346534 560.44921875 755.79907227 C560.2243428 756.91353729 559.99946686 758.02800232 559.76777649 759.17623901 C557.31489483 771.34214777 554.96364852 783.52643989 552.62402344 795.71459961 C551.80552566 799.95398443 550.9760165 804.1911264 550.14453125 808.42797852 C549.6894876 810.7508274 549.23461646 813.07371 548.77981567 815.39660645 C548.47807107 816.93603145 548.1757312 818.4753399 547.87277222 820.01452637 C546.32364423 827.89050234 544.81820248 835.76621742 543.5078125 843.68579102 C543.29519775 844.95205322 543.08258301 846.21831543 542.86352539 847.52294922 C542.47725608 849.85639193 542.10417811 852.19207852 541.74780273 854.53027344 C540.02802949 864.90248095 536.43434122 874.00360146 527.88671875 880.53344727 C519.91503842 885.08881863 511.899715 885.10080231 502.94116211 885.03515625 C501.45676666 885.03894649 499.97237476 885.04445232 498.48799133 885.05152893 C494.48382213 885.06540786 490.48008625 885.05436806 486.47594142 885.03781772 C482.27078775 885.02389234 478.06565734 885.03043568 473.86048889 885.03395081 C466.80202308 885.03664674 459.74372793 885.02322955 452.68530273 885 C444.54180594 884.97338381 436.39859412 884.97164874 428.25506872 884.98338836 C420.39764023 884.99419196 412.54031414 884.98795952 404.68289375 884.97383308 C401.34937665 884.96809667 398.01593506 884.96813738 394.68241692 884.97289848 C390.75307968 884.97769399 386.82405193 884.96746094 382.89477348 884.94594383 C381.45854231 884.94041104 380.02228119 884.93987817 378.58604813 884.9448967 C366.81222849 884.98085806 358.54948948 883.98219859 349.8359375 875.72485352 C344.35682689 869.56497164 342.57063215 862.71756238 342.66357422 854.63012695 C343.13770283 848.05042536 344.62419938 841.60934386 345.94921875 835.15844727 C346.26924111 833.56359791 346.58823105 831.96854107 346.90625 830.37329102 C347.56649582 827.06551016 348.23113497 823.75865813 348.89892578 820.45239258 C350.28742388 813.56055001 351.62160935 806.65826746 352.95654297 799.75588989 C353.67944917 796.02109677 354.40632905 792.28707714 355.1328125 788.55297852 C355.42432866 787.0537947 355.71583255 785.5546085 356.00732422 784.05541992 C356.89521778 779.48944552 357.78353465 774.92355351 358.671875 770.35766602 C360.26849673 762.15111324 361.86386454 753.94431729 363.45843506 745.73736572 C363.89222012 743.50513757 364.32622061 741.27295138 364.76025391 739.04077148 C365.46293281 735.42655385 366.16474799 731.81216946 366.86593628 728.19766235 C367.25067817 726.21533234 367.63619195 724.23315218 368.02172852 722.25097656 C368.25303467 721.05770752 368.48434082 719.86443848 368.72265625 718.63500977 C369.02502197 717.0777417 369.02502197 717.0777417 369.33349609 715.48901367 C369.89118078 712.5096091 370.39863653 709.52497289 370.88671875 706.53344727 C370.03420469 707.02059015 369.18169064 707.50773304 368.30334282 708.00963783 C364.60634306 709.65849442 362.24220451 709.91044023 358.22073364 709.91439819 C357.2537087 709.92141815 357.2537087 709.92141815 356.2671479 709.92857993 C354.1207564 709.94048456 351.97500879 709.93109101 349.82861328 709.92163086 C348.28407419 709.92569868 346.73953801 709.93104174 345.19500732 709.93756104 C341.00893575 709.95121778 336.82308643 709.9459422 332.63701105 709.93642378 C328.24985319 709.92881594 323.86271405 709.93587617 319.47555542 709.94058228 C312.10655308 709.9460377 304.73764098 709.93885501 297.36865234 709.92456055 C288.86055097 709.90824654 280.35266543 709.91351428 271.84456933 709.93003976 C264.53056469 709.94367517 257.21662486 709.94556389 249.90261161 709.93772376 C245.53841294 709.93305696 241.17431553 709.93239472 236.81012344 709.94233322 C232.70439612 709.95103012 228.59894556 709.94493152 224.49324799 709.92765045 C222.99047936 709.92369958 221.48768726 709.92479557 219.98492813 709.93143845 C209.30746196 709.97426823 200.84933634 709.35789175 192.71875 701.74047852 C186.46500624 694.20665075 185.24048181 686.00460563 185.88671875 676.53344727 C186.38922585 673.00645449 187.14633136 669.56554594 187.94921875 666.09594727 C188.41405425 663.97802576 188.87611551 661.85949416 189.3359375 659.74047852 C189.58649902 658.59144043 189.83706055 657.44240234 190.09521484 656.25854492 C191.57689192 649.28524794 192.91222851 642.28330228 194.26171875 635.28344727 C194.56051671 633.73858519 194.85942715 632.19374487 195.15844727 630.64892578 C195.76613254 627.50834852 196.37305083 624.36762432 196.97949219 621.22680664 C198.29690284 614.40706144 199.62432002 607.58926371 200.95123291 600.7713623 C201.68016179 597.02547494 202.40840467 593.27945421 203.13671875 589.53344727 C203.42838215 588.03344663 203.72004882 586.53344663 204.01171875 585.03344727 C204.15609375 584.29094727 204.30046875 583.54844727 204.44921875 582.78344727 C215.60546875 525.40844727 215.60546875 525.40844727 226.76171875 468.03344727 C226.97826614 466.91975014 226.97826614 466.91975014 227.19918823 465.78355408 C227.49093158 464.28319317 227.78269998 462.78283713 228.07449341 461.28248596 C228.80269222 457.53804737 229.5304588 453.79352579 230.25732422 450.04882812 C231.73090192 442.45974291 233.21212973 434.87226891 234.70703125 427.28735352 C236.32492769 419.07362225 237.91279822 410.85440638 239.48382568 402.6315918 C239.87781435 400.57981867 240.27727775 398.52918365 240.67822266 396.47875977 C243.0530947 384.23633259 245.30777823 372.16329265 245.38671875 359.65844727 C245.3930835 358.82643799 245.39944824 357.99442871 245.40600586 357.13720703 C245.29387337 351.93198448 244.52538075 348.0641952 241.88671875 343.53344727 C229.11115057 334.7964781 209.67108151 335.41844319 194.79394531 335.328125 C193.75831451 335.3182254 192.72268372 335.30832581 191.65567017 335.29812622 C188.27958351 335.26688733 184.90348284 335.24190482 181.52734375 335.21704102 C179.16794498 335.19643888 176.80854962 335.17544163 174.44915771 335.15406799 C168.27452383 335.09918364 162.09985851 335.04962766 155.9251709 335.0012207 C149.61024213 334.95075825 143.29535833 334.89520205 136.98046875 334.84008789 C124.61592395 334.73291847 112.25133989 334.63138401 99.88671875 334.53344727 C99.82645854 335.11841413 99.76619833 335.703381 99.70411205 336.30607414 C99.24539529 340.6165756 98.72075386 344.86008894 97.85864258 349.11206055 C97.65761932 350.11370239 97.45659607 351.11534424 97.2494812 352.14733887 C97.0330899 353.20545776 96.81669861 354.26357666 96.59375 355.35375977 C96.2541777 357.03882629 96.2541777 357.03882629 95.90774536 358.75793457 C95.42484481 361.15245483 94.94024258 363.54663245 94.45407104 365.94049072 C93.43426111 370.96347212 92.42358369 375.98827666 91.41255188 381.01303101 C90.91285473 383.49636642 90.41276618 385.97962311 89.91227722 388.46279907 C86.37216174 406.03159591 82.98993413 423.6287641 79.69140625 441.24438477 C78.86131074 445.67419129 78.03054814 450.10387214 77.19921875 454.53344727 C76.98872894 455.65521362 76.77823914 456.77697998 76.56137085 457.93273926 C72.13292954 481.49922205 67.42652341 505.00717294 62.69493103 528.51429749 C60.26373402 540.60708764 57.92263802 552.71640346 55.59912109 564.83032227 C54.37435233 571.19676933 53.1348429 577.56034703 51.8961792 583.92410278 C51.44949657 586.21951962 51.0032514 588.51502111 50.55712891 590.81054688 C49.24898921 597.54036481 47.93940263 604.26988291 46.62106323 610.99771118 C46.05868354 613.86841417 45.49755989 616.73936194 44.93664551 619.61035156 C44.65401072 621.05575937 44.37089118 622.50107247 44.08728027 623.94628906 C42.1803562 633.66958996 40.35509882 643.40520753 38.5859375 653.15454102 C37.98700675 656.43137275 37.38733662 659.70806849 36.78753662 662.98474121 C36.398925 665.12240748 36.01444529 667.26082951 35.63433838 669.40002441 C35.09966202 672.40866564 34.55107595 675.41449176 34 678.42016602 C33.84601242 679.30933212 33.69202484 680.19849823 33.53337097 681.11460876 C32.13252295 688.63180521 29.7808836 696.01506138 24.63671875 701.84594727 C23.85554688 702.76827148 23.85554688 702.76827148 23.05859375 703.70922852 C15.20736189 710.30369844 7.63258996 710.10495597 -2.21484375 710.03515625 C-3.73997495 710.03894402 -5.2651027 710.04444783 -6.79022217 710.05152893 C-10.91426854 710.06544125 -15.03789573 710.05434372 -19.16191864 710.03781772 C-23.48766878 710.02392102 -27.81339572 710.03043255 -32.13916016 710.03395081 C-39.40208657 710.03664929 -46.66484738 710.02320856 -53.92773438 710 C-62.31205468 709.97339253 -70.69609819 709.97164452 -79.08044624 709.98338836 C-87.16212615 709.99418592 -95.24370641 709.98796357 -103.32537842 709.97383308 C-106.75740936 709.96809042 -110.18936696 709.96814239 -113.62139893 709.97289848 C-117.66643264 709.97768808 -121.71116517 709.967485 -125.75614166 709.94594383 C-127.23633051 709.94040269 -128.71654846 709.93988598 -130.1967392 709.9448967 C-140.40619181 709.97511092 -148.67229181 709.55250057 -156.5078125 702.41625977 C-162.70132584 695.15282076 -164.79742319 686.82808814 -164.11328125 677.53344727 C-163.38315805 672.99643388 -162.44893774 668.51341338 -161.46560669 664.02615356 C-160.80563209 661.01168867 -160.16940076 657.99234388 -159.53157043 654.97312927 C-159.20255598 653.41639355 -158.87246312 651.85988536 -158.54130554 650.30360413 C-157.00680196 643.08292312 -155.5713829 635.84475831 -154.17578125 628.59594727 C-153.94068848 627.37665527 -153.7055957 626.15736328 -153.46337891 624.90112305 C-150.86035646 611.32021139 -148.34226172 597.72313669 -145.82836914 584.12548828 C-145.66311234 583.23272186 -145.49785553 582.33995544 -145.32759094 581.4201355 C-145.01988408 579.75718989 -144.7127725 578.09413397 -144.40641785 576.43093872 C-143.36201827 570.78747063 -142.25153515 565.15870763 -141.11328125 559.53344727 C-141.57476563 560.23727539 -142.03625 560.94110352 -142.51171875 561.66625977 C-152.35732933 576.57087974 -162.70236321 590.74296029 -174.77734375 603.95141602 C-176.68001832 606.05453957 -178.53827683 608.18335978 -180.390625 610.33032227 C-184.11166535 614.59127241 -188.0402374 618.6086081 -192.05078125 622.59594727 C-192.71529297 623.26432617 -193.37980469 623.93270508 -194.06445312 624.62133789 C-198.58229265 629.13041342 -203.26043388 633.38870378 -208.11328125 637.53344727 C-208.68812256 638.03094482 -209.26296387 638.52844238 -209.85522461 639.04101562 C-234.91850467 660.58208383 -263.39056273 676.63540657 -294.11328125 688.53344727 C-294.87946777 688.83476563 -295.6456543 689.13608398 -296.43505859 689.4465332 C-314.67663657 696.55559894 -333.73502384 700.49825951 -352.98828125 703.72094727 C-353.68707397 703.84155518 -354.3858667 703.96216309 -355.10583496 704.08642578 C-382.48628078 708.76094014 -410.11163513 710.00188633 -437.83074808 709.83762908 C-441.66358521 709.81833787 -445.49643699 709.81707206 -449.32931519 709.81355286 C-456.52477599 709.80438112 -463.72009321 709.77997872 -470.91549194 709.74950439 C-479.13375767 709.71548463 -487.3520318 709.69935731 -495.57035089 709.68441808 C-512.41807719 709.65340781 -529.26566066 709.60095132 -546.11328125 709.53344727 C-546.17354146 710.11841413 -546.23380167 710.703381 -546.29588795 711.30607414 C-546.75460471 715.6165756 -547.27924614 719.86008894 -548.14135742 724.11206055 C-548.34236557 725.11361679 -548.54337372 726.11517303 -548.75047302 727.14707947 C-548.96687943 728.20528397 -549.18328583 729.26348846 -549.40625 730.35375977 C-549.63276749 731.47790787 -549.85928497 732.60205597 -550.09266663 733.76026917 C-550.57569365 736.1555698 -551.0604329 738.55052569 -551.54675293 740.94515991 C-552.814941 747.190478 -554.07048492 753.43834201 -555.328125 759.68579102 C-555.57430573 760.90677994 -555.82048645 762.12776886 -556.0741272 763.38575745 C-557.87499098 772.32376238 -559.64216642 781.26724129 -561.36328125 790.22094727 C-561.58773926 791.38787109 -561.81219727 792.55479492 -562.04345703 793.75708008 C-562.49335774 796.09864574 -562.94290249 798.44027982 -563.39208984 800.78198242 C-565.10448634 809.68945856 -566.83116977 818.59423027 -568.57250977 827.49609375 C-568.86474906 828.99031517 -569.15698543 830.48453717 -569.44921875 831.97875977 C-569.5915947 832.70633987 -569.73397064 833.43391998 -569.88066101 834.18354797 C-570.78461159 838.81448108 -571.662509 843.44970063 -572.52734375 848.08813477 C-572.95180607 850.3199088 -573.37628407 852.55167986 -573.80078125 854.78344727 C-573.97875244 855.77006348 -574.15672363 856.75667969 -574.34008789 857.77319336 C-576.15969408 867.21587813 -579.45275281 874.49644262 -587.11328125 880.53344727 C-595.09986038 885.14040573 -603.23879334 885.11169023 -612.2265625 885.06689453 C-613.72904299 885.07396509 -615.23151636 885.08271485 -616.73397827 885.09300232 C-620.78776546 885.11537702 -624.84116003 885.11258506 -628.8949852 885.10368085 C-632.28952935 885.09854727 -635.68400124 885.10588252 -639.07853794 885.11315292 C-647.09050965 885.13011351 -655.10229072 885.12662432 -663.11425781 885.10986328 C-671.35895557 885.09293764 -679.60312402 885.10879108 -687.84776402 885.14108616 C-694.9478905 885.16783658 -702.04785277 885.17504363 -709.14802456 885.16657108 C-713.3792897 885.1616587 -717.61023643 885.16376561 -721.84146118 885.1843586 C-725.82101206 885.20280244 -729.79980505 885.1966522 -733.77931595 885.17215919 C-735.23287204 885.16717908 -736.68648678 885.17056778 -738.13999557 885.18330765 C-749.02149384 885.27108094 -756.63341157 883.52287065 -764.98828125 876.40844727 C-770.77053791 870.10674439 -772.33150772 862.68863435 -772.26972961 854.38542175 C-771.99432284 849.3648957 -770.95136497 844.52689358 -769.91796875 839.61547852 C-769.69003632 838.49274536 -769.46210388 837.37001221 -769.2272644 836.21325684 C-768.48966616 832.58897396 -767.73892714 828.96754785 -766.98828125 825.34594727 C-766.47578939 822.83664991 -765.96440111 820.32712692 -765.45410156 817.81738281 C-764.45479554 812.90434797 -763.4518964 807.99207094 -762.44628906 803.08032227 C-760.86657616 795.34523356 -759.34802828 787.59980225 -757.86328125 779.84594727 C-757.63745361 778.6709668 -757.41162598 777.49598633 -757.17895508 776.28540039 C-756.72745928 773.93586886 -756.27636672 771.58625981 -755.82568359 769.23657227 C-754.60100303 762.87058365 -753.36158867 756.50746297 -752.12301636 750.14416504 C-751.67552405 747.84462556 -751.22845056 745.54500502 -750.78149414 743.24536133 C-749.48226999 736.56181371 -748.18177218 729.87852923 -746.8731842 723.19680786 C-746.18125743 719.66340741 -745.49068616 716.12974301 -744.80078125 712.59594727 C-744.58961166 711.51449432 -744.58961166 711.51449432 -744.37417603 710.41119385 C-742.49074788 700.75313874 -740.64746399 691.08806215 -738.8359375 681.41625977 C-738.63657089 680.35216385 -738.43720428 679.28806793 -738.23179626 678.19172668 C-737.92768578 676.56855782 -737.92768578 676.56855782 -737.61743164 674.91259766 C-732.59010241 648.08337388 -727.30770527 621.31194646 -721.92150879 594.55267334 C-719.49030695 582.4598577 -717.14920541 570.35051655 -714.82568359 558.23657227 C-713.60070457 551.86903223 -712.36104127 545.50434953 -711.12219238 539.13949585 C-710.67733543 536.85393227 -710.23267841 534.56832988 -709.78808594 532.28271484 C-709.19358622 529.22646865 -708.59901898 526.1702356 -708.00439453 523.11401367 C-706.68563116 516.33558797 -705.36773199 509.55699423 -704.04977417 502.77841187 C-703.32097922 499.03008333 -702.59212733 495.28176586 -701.86328125 491.53344727 C-701.57161431 490.03344732 -701.27994764 488.53344732 -700.98828125 487.03344727 C-695.73828125 460.03344727 -690.48828125 433.03344727 -685.23828125 406.03344727 C-685.09389114 405.29086166 -684.94950104 404.54827606 -684.80073547 403.78318787 C-684.50923338 402.2840502 -684.21771931 400.78491486 -683.92619324 399.28578186 C-683.1944102 395.52260719 -682.46283897 391.75939157 -681.73168945 387.99609375 C-680.45058953 381.40318541 -679.16853042 374.81048144 -677.87771606 368.21946716 C-677.18428772 364.67851186 -676.49219994 361.13729549 -675.80078125 357.59594727 C-675.65991089 356.87452545 -675.51904053 356.15310364 -675.37390137 355.40982056 C-673.49056579 345.75222315 -671.64737802 336.08760316 -669.8359375 326.41625977 C-669.63657089 325.35216385 -669.43720428 324.28806793 -669.23179626 323.19172668 C-669.02905594 322.10961411 -668.82631561 321.02750153 -668.61743164 319.91259766 C-664.22413 296.46697328 -659.67040405 273.05926408 -654.95605469 249.67602539 C-654.50318408 247.42929494 -654.05038313 245.18255044 -653.59765625 242.93579102 C-653.38050964 241.85824554 -653.16336304 240.78070007 -652.93963623 239.67050171 C-651.6589294 233.298571 -650.40589817 226.92223127 -649.19140625 220.53735352 C-649.05140198 219.80284973 -648.91139771 219.06834595 -648.76715088 218.31158447 C-648.1537357 215.08692384 -647.54681822 211.86137151 -646.95019531 208.63354492 C-644.7065727 196.74376285 -642.55875791 187.16470157 -633.1875 178.92797852 C-626.1161117 174.1737683 -619.95257964 174.1087632 -611.6190033 174.16595459 C-610.35952159 174.16268575 -609.10003988 174.15941691 -607.80239207 174.15604901 C-604.31800946 174.14742314 -600.83389459 174.15744559 -597.34953535 174.17059135 C-593.58740349 174.18150844 -589.82529583 174.17507335 -586.06315613 174.17080688 C-578.6979719 174.16517777 -571.33289192 174.17548009 -563.96772545 174.19109485 C-555.39020441 174.20864344 -546.81270352 174.2100543 -538.23516733 174.21071044 C-522.9310884 174.21239799 -507.62705691 174.22820699 -492.32299805 174.25219727 C-477.47305915 174.27545877 -462.62315033 174.28962266 -447.77319336 174.29321289 C-446.8584302 174.29343566 -445.94366705 174.29365843 -445.0011838 174.29388794 C-443.15836557 174.29433054 -441.31554735 174.29477257 -439.47272912 174.29521401 C-438.56367651 174.29543358 -437.65462391 174.29565314 -436.71802425 174.29587936 C-435.35788473 174.29620334 -435.35788473 174.29620334 -433.97026765 174.29653387 C-419.81717925 174.30023537 -405.6640957 174.31159464 -391.51101262 174.32400976 C-386.38185702 174.32844336 -381.25270187 174.33188232 -376.1235451 174.33463189 C-367.98815414 174.33906586 -359.8527811 174.34684474 -351.71740144 174.3614063 C-348.00024218 174.36800882 -344.28309867 174.3730785 -340.56593323 174.37386703 C-336.53745881 174.37479972 -332.50903885 174.38349043 -328.48057556 174.39300537 C-327.30441537 174.39213889 -326.12825518 174.39127241 -324.91645378 174.39037967 C-323.29568092 174.39614138 -323.29568092 174.39614138 -321.64216518 174.4020195 C-320.24782809 174.40388925 -320.24782809 174.40388925 -318.82532257 174.40579677 C-315.85853961 174.54543746 -313.03621222 175.01869149 -310.11328125 175.53344727 C-307.84346704 175.65785852 -305.57236988 175.75980902 -303.30078125 175.84594727 C-292.77519716 176.3934337 -282.43183699 178.19175922 -272.06396484 180.01586914 C-270.2664206 180.33117559 -268.46753775 180.63911673 -266.66650391 180.93383789 C-229.16227779 187.10072317 -190.87376288 203.67871006 -162.11328125 228.53344727 C-160.90865234 229.5737207 -160.90865234 229.5737207 -159.6796875 230.63500977 C-157.11910247 232.89599436 -154.60935201 235.20149125 -152.11328125 237.53344727 C-151.24960937 238.33137695 -150.3859375 239.12930664 -149.49609375 239.95141602 C-125.29567735 263.13471346 -100.42915834 303.15177253 -98.984375 337.60766602 C-99.02691406 338.24317383 -99.06945313 338.87868164 -99.11328125 339.53344727 C-98.45328125 339.53344727 -97.79328125 339.53344727 -97.11328125 339.53344727 C-97.01273438 338.22118164 -96.9121875 336.90891602 -96.80859375 335.55688477 C-96.04848041 328.00077553 -94.47425203 320.59700031 -92.98828125 313.15844727 C-92.67333602 311.56349228 -92.35889295 309.96843806 -92.04492188 308.37329102 C-91.39353738 305.06593879 -90.7400147 301.75901994 -90.08496094 298.45239258 C-88.72104974 291.55896513 -87.3834737 284.66044382 -86.04556274 277.76193237 C-85.3151986 273.9967802 -84.58345369 270.23189661 -83.8515625 266.46704102 C-83.70653793 265.72090042 -83.56151337 264.97475983 -83.41209412 264.20600891 C-82.57020949 259.87658953 -81.72538813 255.547757 -80.87771606 251.21946716 C-80.18428772 247.67851186 -79.49219994 244.13729549 -78.80078125 240.59594727 C-78.65991089 239.87452545 -78.51904053 239.15310364 -78.37390137 238.40982056 C-76.49056579 228.75222315 -74.64737802 219.08760316 -72.8359375 209.41625977 C-72.63657089 208.35216385 -72.43720428 207.28806793 -72.23179626 206.19172668 C-72.02905594 205.10961411 -71.82631561 204.02750153 -71.61743164 202.91259766 C-66.59010241 176.08337388 -61.30770527 149.31194646 -55.92150879 122.55267334 C-53.49352574 110.47586796 -51.15509388 98.38276994 -48.83447266 86.28491211 C-46.6927041 75.14394542 -44.5234192 64.00831018 -42.34590149 52.87428284 C-41.44683883 48.2689742 -40.56800211 43.6602114 -39.69921875 39.04907227 C-39.27486537 36.83550648 -38.85039497 34.62196313 -38.42578125 32.40844727 C-38.24781006 31.43858887 -38.06983887 30.46873047 -37.88647461 29.46948242 C-35.97087994 19.59861807 -33.400705 10.7732937 -25.11328125 4.53344727 C-17.09637391 -0.04290625 -9.00796041 -0.04489633 0 0 Z " fill="#FDFDFD" transform="translate(1173.11328125,199.466552734375)"/>
<path d="M0 0 C36.88389604 -0.04591188 73.76778773 -0.08108712 110.65170663 -0.10213066 C115.01943207 -0.10463167 119.38715745 -0.10722036 123.75488281 -0.10986328 C124.62431287 -0.1103879 125.49374293 -0.11091252 126.38951935 -0.11145304 C140.41402566 -0.12012395 154.43851535 -0.13587539 168.46301185 -0.15430559 C182.88435462 -0.17309736 197.30568876 -0.18413619 211.72704327 -0.18817699 C220.60509469 -0.19090294 229.48309911 -0.19946974 238.36113603 -0.21583293 C244.47300009 -0.22651474 250.58484033 -0.22957572 256.69671302 -0.22700275 C260.20772809 -0.22573859 263.71866184 -0.22748777 267.22966194 -0.23841095 C289.47358474 -0.29727305 311.60099072 0.5610583 333.625 3.875 C335.38493286 4.13543091 335.38493286 4.13543091 337.18041992 4.40112305 C345.21707513 5.63235309 353.06768457 7.08738099 360.87939453 9.37988281 C362.43953638 9.83610665 364.00365012 10.27880229 365.56982422 10.71386719 C411.13295426 23.37338075 451.10444458 49.28243126 474.890625 90.98828125 C481.27878797 102.55849601 486.24655413 114.33178626 490 127 C490.20705566 127.69448242 490.41411133 128.38896484 490.62744141 129.10449219 C509.28128094 193.88218939 492.52309954 273.27791185 461.15625 331.3359375 C450.3051999 350.93914417 437.51163189 369.13324278 422.2578125 385.55859375 C420.32656147 387.64688422 418.4668194 389.77091534 416.625 391.9375 C409.41356173 400.22298227 401.44657902 407.98456892 393 415 C392.46987305 415.44923828 391.93974609 415.89847656 391.39355469 416.36132812 C376.41572724 429.0330071 360.40285704 439.92813023 343 449 C342.23945312 449.39928711 341.47890625 449.79857422 340.6953125 450.20996094 C305.52666235 468.43449202 266.26066312 476.53310772 227.03491211 479.58129883 C226.19193317 479.64703523 225.34895424 479.71277164 224.48043048 479.78050005 C206.49748025 481.15405296 188.5729221 481.47860396 170.544698 481.50611091 C166.27673031 481.5157684 162.00885748 481.54198261 157.74095154 481.56611633 C149.73117832 481.60905845 141.72142418 481.63804132 133.71157259 481.66143972 C124.5620549 481.68888981 115.41263614 481.73276861 106.26319039 481.77772844 C87.50884658 481.8695336 68.75447645 481.94167912 50 482 C49.80627808 482.99628418 49.61255615 483.99256836 49.41296387 485.01904297 C45.79589847 503.6210936 45.79589847 503.6210936 45.33503503 505.99124759 C45.02611251 507.57999251 44.71719042 509.16873751 44.40826875 510.75748259 C43.61265942 514.84919777 42.81704219 518.94091142 42.02141094 523.03262234 C41.86330142 523.84574147 41.70519189 524.6588606 41.54229116 525.4966197 C41.24234612 527.03916364 40.94239854 528.58170708 40.64244795 530.12424994 C39.93106415 533.78273678 39.21983473 537.4412535 38.5090332 541.09985352 C37.26450714 547.50506268 36.01862839 553.90999115 34.76455688 560.31333923 C34.07109235 563.854509 33.37904748 567.3959554 32.6875 570.9375 C32.54928833 571.64496368 32.41107666 572.35242737 32.26867676 573.08132935 C30.28567315 583.24457971 28.35141153 593.41653042 26.44140625 603.59375 C26.21929977 604.7761879 25.9971933 605.95862579 25.76835632 607.17689514 C24.66290845 613.06439974 23.56073302 618.95248873 22.46362305 624.84155273 C22.05395936 627.02849912 21.6442136 629.21543013 21.234375 631.40234375 C21.05334732 632.38025879 20.87231964 633.35817383 20.68580627 634.36572266 C19.318241 641.64245216 17.66897278 648.76778461 16 656 C-31.19 656 -78.38 656 -127 656 C-123.94663892 638.29050576 -120.84280344 620.67804091 -117.26477051 603.07949829 C-116.0497666 597.10284276 -114.84842376 591.1234329 -113.64453125 585.14453125 C-113.29381058 583.40579994 -113.29381058 583.40579994 -112.93600464 581.63194275 C-110.45246908 569.31089432 -108.06640195 556.97232054 -105.69921875 544.62841797 C-104.95224975 540.75221223 -104.19619517 536.87782898 -103.4375 533.00390625 C-100.82075107 519.63178359 -98.22708054 506.25624222 -95.71875 492.86328125 C-95.51963013 491.80041901 -95.32051025 490.73755676 -95.11535645 489.64248657 C-94.91293335 488.56196014 -94.71051025 487.48143372 -94.50195312 486.36816406 C-89.47589741 459.54250293 -84.19368596 432.77483241 -78.80822754 406.01922607 C-76.3770257 393.92641043 -74.03592416 381.81706929 -71.71240234 369.703125 C-70.48742332 363.33558497 -69.24776002 356.97090226 -68.00891113 350.60604858 C-67.56405418 348.320485 -67.11939716 346.03488262 -66.67480469 343.74926758 C-66.08030497 340.69302138 -65.48573773 337.63678834 -64.89111328 334.58056641 C-64.00914432 330.04725802 -63.1275636 325.51387421 -62.24609375 320.98046875 C-62.10210144 320.23997284 -61.95810913 319.49947693 -61.80975342 318.73654175 C-61.07911732 314.9790358 -60.34870024 311.22148747 -59.61865234 307.46386719 C-58.33746477 300.87055317 -57.05532892 294.27744139 -55.76443481 287.6860199 C-55.07100647 284.1450646 -54.37891869 280.60384822 -53.6875 277.0625 C-53.54662964 276.34107819 -53.40575928 275.61965637 -53.26062012 274.87637329 C-51.37728454 265.21877588 -49.53409677 255.55415589 -47.72265625 245.8828125 C-47.52328964 244.81871658 -47.32392303 243.75462067 -47.11851501 242.65827942 C-46.91577469 241.57616684 -46.71303436 240.49405426 -46.50415039 239.37915039 C-41.47682116 212.54992662 -36.19442402 185.77849919 -30.80822754 159.01922607 C-28.3770257 146.92641043 -26.03592416 134.81706929 -23.71240234 122.703125 C-22.48742332 116.33558497 -21.24776002 109.97090226 -20.00891113 103.60604858 C-19.56405418 101.320485 -19.11939716 99.03488262 -18.67480469 96.74926758 C-18.08030497 93.69302138 -17.48573773 90.63678834 -16.89111328 87.58056641 C-16.00914432 83.04725802 -15.12755866 78.51387517 -14.24609375 73.98046875 C-14.10173889 73.23806946 -13.95738403 72.49567017 -13.80865479 71.73077393 C-13.08439779 68.00592252 -12.36024058 64.28105175 -11.63623047 60.55615234 C-10.27893766 53.57368381 -8.9207387 46.59139517 -7.55941772 39.60971069 C-6.9217511 36.33907732 -6.2845877 33.068346 -5.64746094 29.79760742 C-5.34579089 28.24970701 -5.0438787 26.70185377 -4.74169922 25.15405273 C-4.3206602 22.99735513 -3.90048416 20.8404909 -3.48046875 18.68359375 C-3.24223389 17.46212646 -3.00399902 16.24065918 -2.75854492 14.98217773 C-2.13440926 11.74243165 -1.54149861 8.49744043 -0.95259094 5.25111389 C-0.77381063 4.26610932 -0.59503031 3.28110476 -0.41083241 2.26625156 C-0.27525771 1.51838855 -0.13968302 0.77052553 0 0 Z " fill="#000000" transform="translate(555,401)"/>
<path d="M0 0 C37.62244058 -0.09194523 75.24486397 -0.16223503 112.86739456 -0.20426132 C117.32867012 -0.20926298 121.78994547 -0.21444039 126.2512207 -0.21972656 C127.13922427 -0.2207758 128.02722784 -0.22182505 128.9421406 -0.22290608 C143.24188667 -0.24021946 157.54156713 -0.27170596 171.84127454 -0.30861118 C186.55985097 -0.34627512 201.2783935 -0.36828901 215.99701613 -0.37635398 C224.24496317 -0.38130699 232.49277324 -0.39313239 240.74067116 -0.42292023 C306.99527299 -0.65512059 306.99527299 -0.65512059 335 4 C337.38119743 4.37156294 339.7624076 4.74304429 342.14363098 5.11444092 C376.92110413 10.59405537 412.41061429 24.57993735 439 48 C439.87398437 48.76441406 440.74796875 49.52882813 441.6484375 50.31640625 C456.83294569 63.7909473 468.81109007 78.86399356 478 97 C478.32194336 97.63147949 478.64388672 98.26295898 478.97558594 98.91357422 C508.06332061 156.68711479 499.32500282 227.72974494 480.01904297 287.01220703 C467.73465249 323.67802121 448.60227576 357.19080964 422.2578125 385.55859375 C420.32656147 387.64688422 418.4668194 389.77091534 416.625 391.9375 C409.41356173 400.22298227 401.44657902 407.98456892 393 415 C392.46987305 415.44923828 391.93974609 415.89847656 391.39355469 416.36132812 C376.41572724 429.0330071 360.40285704 439.92813023 343 449 C342.23945312 449.39928711 341.47890625 449.79857422 340.6953125 450.20996094 C305.52666235 468.43449202 266.26066312 476.53310772 227.03491211 479.58129883 C226.19193317 479.64703523 225.34895424 479.71277164 224.48043048 479.78050005 C206.49748025 481.15405296 188.5729221 481.47860396 170.544698 481.50611091 C166.27673031 481.5157684 162.00885748 481.54198261 157.74095154 481.56611633 C149.73117832 481.60905845 141.72142418 481.63804132 133.71157259 481.66143972 C124.5620549 481.68888981 115.41263614 481.73276861 106.26319039 481.77772844 C87.50884658 481.8695336 68.75447645 481.94167912 50 482 C49.82804076 482.8886163 49.65608152 483.77723261 49.4789114 484.69277668 C48.83239993 488.03361177 48.18586152 491.37444164 47.53930569 494.71526814 C47.26107018 496.15297081 46.98284498 497.59067549 46.70463085 499.0283823 C44.79321396 508.90582391 42.87936298 518.7827834 40.95736694 528.65817261 C40.53158926 530.84635862 40.10622241 533.03462425 39.6809082 535.22290039 C38.3774676 541.92798438 37.07282712 548.63281963 35.76000977 555.33607483 C35.0680523 558.8696644 34.37753886 562.40353532 33.6875 565.9375 C33.54904663 566.64617218 33.41059326 567.35484436 33.26794434 568.08499146 C31.29648554 578.18836402 29.37371693 588.30038186 27.4765625 598.41796875 C27.25682266 599.58857346 27.03708282 600.75917816 26.8106842 601.96525574 C25.72015214 607.77677432 24.63301214 613.58889317 23.55151367 619.40209961 C23.14512516 621.57277368 22.73863527 623.74342878 22.33203125 625.9140625 C22.15616486 626.86617111 21.98029846 627.81827972 21.79910278 628.79924011 C20.08343736 637.928423 18.01930094 646.91314576 16 656 C-31.19 656 -78.38 656 -127 656 C-121.26743659 622.75113225 -121.26743659 622.75113225 -118.625 609.4375 C-118.32842151 607.92910612 -118.03220947 606.42064016 -117.73632812 604.91210938 C-117.12800718 601.81206385 -116.51819321 598.71231811 -115.90722656 595.61279297 C-114.57061715 588.82531772 -113.25366864 582.03402334 -111.93548584 575.24295044 C-111.20781983 571.49513905 -110.47884271 567.7475827 -109.75 564 C-109.45832707 562.50000122 -109.1666604 561.00000122 -108.875 559.5 C-107.125 550.5 -107.125 550.5 -106.68743896 548.24971008 C-106.39596377 546.7506788 -106.10450054 545.25164519 -105.81304932 543.75260925 C-105.08105163 539.9877686 -104.34884178 536.22296945 -103.61621094 532.45825195 C-102.3373099 525.885424 -101.05931572 519.31243752 -99.79017639 512.73771667 C-95.84981887 492.32595745 -91.79589152 471.93808286 -87.70922852 451.55511475 C-84.31379152 434.61605818 -80.96672342 417.66989675 -77.71240234 400.703125 C-76.48742332 394.33558497 -75.24776002 387.97090226 -74.00891113 381.60604858 C-73.56405418 379.320485 -73.11939716 377.03488262 -72.67480469 374.74926758 C-72.08030497 371.69302138 -71.48573773 368.63678834 -70.89111328 365.58056641 C-69.57234991 358.8021407 -68.25445074 352.02354697 -66.93649292 345.2449646 C-66.20769797 341.49663606 -65.47884608 337.7483186 -64.75 334 C-64.45833306 332.50000005 -64.16666639 331.00000005 -63.875 329.5 C-53.95833333 278.5 -44.04166667 227.5 -34.125 176.5 C-33.98060989 175.7574144 -33.83621979 175.0148288 -33.68745422 174.2497406 C-33.39595213 172.75060294 -33.10443806 171.2514676 -32.81291199 169.75233459 C-32.08112895 165.98915992 -31.34955772 162.2259443 -30.6184082 158.46264648 C-29.33730733 151.86973324 -28.05524104 145.2770256 -26.76443481 138.68600464 C-23.63725602 122.71734768 -20.5662317 106.73938423 -17.56401062 90.74671936 C-17.12601276 88.41447851 -16.68800919 86.08223873 -16.25 83.75 C-16.05274574 82.699049 -15.85549149 81.64809799 -15.65225983 80.56529999 C-12.24872343 62.4474323 -8.73726538 44.35227781 -5.171875 26.265625 C-4.6657602 23.69419141 -4.15973773 21.12273965 -3.65380859 18.55126953 C-2.43692947 12.36730452 -1.21893826 6.18355944 0 0 Z " fill="#000000" transform="translate(1670,401)"/>
<path d="M0 0 C46.86 0 93.72 0 142 0 C141.39102755 6.08972449 140.79316812 11.66089416 139.6171875 17.5859375 C139.48255096 18.27155258 139.34791443 18.95716766 139.209198 19.66355896 C138.76874891 21.9015762 138.32187966 24.13825877 137.875 26.375 C137.5571379 27.98387348 137.23976547 29.59284377 136.92285156 31.2019043 C136.26839811 34.52314469 135.61187703 37.84396684 134.95410156 41.16455078 C134.0799274 45.58530238 133.22006919 50.00869044 132.3671875 54.43359375 C129.74441652 68.03027469 127.08357355 81.61853754 124.359375 95.1953125 C124.00755157 96.94949745 124.00755157 96.94949745 123.64862061 98.73912048 C122.49259269 104.50031723 121.33391281 110.26096157 120.17089844 116.02075195 C116.28553295 135.31682018 112.6303199 154.65462058 109 174 C109.70379917 173.99815641 110.40759834 173.99631283 111.13272476 173.99441338 C128.44494511 173.9497894 145.75715042 173.91693113 163.06941605 173.89637566 C171.44229478 173.88616505 179.81513459 173.87230664 188.18798828 173.84912109 C195.50569304 173.82886746 202.82336958 173.81620995 210.1411016 173.81182301 C213.99767042 173.80926821 217.85415866 173.80349236 221.71070099 173.78853989 C238.24276476 173.72713266 254.71153623 173.98812835 271.22167969 174.89111328 C272.32836494 174.94992916 272.32836494 174.94992916 273.45740747 175.00993323 C286.82893576 175.73756211 299.97461823 177.32488728 313.18847656 179.53271484 C315.57861247 179.9299639 317.96972554 180.29525866 320.3671875 180.64453125 C348.26404555 185.13934726 377.80322274 195.8844773 399 215 C399.85335937 215.75925781 400.70671875 216.51851562 401.5859375 217.30078125 C420.53673135 235.11452747 429.9469831 261.3545045 431.19287109 286.96459961 C431.22555069 288.36039012 431.25214584 289.75633309 431.2734375 291.15234375 C431.28619217 291.91571548 431.29894684 292.67908722 431.31208801 293.46559143 C431.59299614 314.46039749 430.01393667 334.36895343 426 355 C425.80627808 356.00019165 425.61255615 357.0003833 425.41296387 358.03088379 C422.66391576 372.19195566 419.81957383 386.33311216 416.93644714 400.46742249 C415.15714982 409.19815308 413.42876421 417.93688277 411.75 426.6875 C411.52376953 427.8643335 411.29753906 429.04116699 411.06445312 430.25366211 C410.61340961 432.60133062 410.16272476 434.94906806 409.71240234 437.296875 C408.48772178 443.66286362 407.24830742 450.0259843 406.00973511 456.38928223 C405.5622428 458.6888217 405.11516931 460.98844224 404.66821289 463.28808594 C403.36898874 469.97163356 402.06849093 476.65491804 400.75990295 483.3366394 C400.06797618 486.87003986 399.37740491 490.40370426 398.6875 493.9375 C398.54672028 494.65846863 398.40594055 495.37943726 398.26089478 496.12225342 C396.37746663 505.78030853 394.53418274 515.44538511 392.72265625 525.1171875 C392.52328964 526.18128342 392.32392303 527.24537933 392.11851501 528.34172058 C391.91577469 529.42383316 391.71303436 530.50594574 391.50415039 531.62084961 C387.11182209 555.06127957 382.55591703 578.46309162 377.84716797 601.84204102 C377.3954734 604.08479125 376.94381256 606.32754827 376.4921875 608.5703125 C376.2754538 609.64641281 376.05872009 610.72251312 375.8354187 611.83122253 C373.71481962 622.38054022 371.66557081 632.94316584 369.66113281 643.51513672 C369.34547363 645.17053467 369.34547363 645.17053467 369.0234375 646.859375 C368.84731934 647.79233398 368.67120117 648.72529297 368.48974609 649.68652344 C368 652 368 652 367 655 C319.81 655 272.62 655 224 655 C224 649.46691721 224.10021432 645.49892842 225.14453125 640.27734375 C225.26987244 639.63976135 225.39521362 639.00217896 225.52435303 638.34527588 C225.94650307 636.20784351 226.37952659 634.07276404 226.8125 631.9375 C227.12102178 630.38660585 227.4288601 628.83557561 227.73608398 627.28442383 C228.61502297 622.85814137 229.5041035 618.43394421 230.39477539 614.01000977 C231.5021954 608.50239329 232.60207051 602.99326689 233.703125 597.484375 C235.13794788 590.30781302 236.57348226 583.13139622 238.01196289 575.95556641 C241.16600248 560.21622094 244.26379932 544.46804029 247.28759766 528.703125 C248.51257668 522.33558497 249.75223998 515.97090226 250.99108887 509.60604858 C251.43594582 507.320485 251.88060284 505.03488262 252.32519531 502.74926758 C252.91969503 499.69302138 253.51426227 496.63678834 254.10888672 493.58056641 C255.42765009 486.8021407 256.74554926 480.02354697 258.06350708 473.2449646 C258.79230203 469.49663606 259.52115392 465.7483186 260.25 462 C260.54166694 460.50000005 260.83333361 459.00000005 261.125 457.5 C261.70833333 454.5 262.29166667 451.5 262.875 448.5 C263.01936996 447.75751007 263.16373993 447.01502014 263.31248474 446.25003052 C263.60417831 444.74992413 263.89589584 443.24982241 264.18763733 441.74972534 C264.91658888 438.00139085 265.64512485 434.25297651 266.37280273 430.50439453 C267.83436872 422.9776541 269.30292487 415.45238734 270.78515625 407.9296875 C272.11428773 401.18211049 273.42409718 394.43104119 274.71537781 387.67611694 C275.42669793 383.95967113 276.14752235 380.24558374 276.88964844 376.53515625 C285.31036462 337.85130522 285.31036462 337.85130522 274.65625 301.18359375 C266.42992964 290.33804403 252.22880795 285.36915308 239.1875 283.375 C238.45724609 283.25382812 237.72699219 283.13265625 236.97460938 283.0078125 C226.56248463 281.34042264 216.26117357 280.85452125 205.72583008 280.88647461 C204.44650604 280.88632858 203.16718201 280.88618256 201.84909058 280.8860321 C198.37669778 280.88574781 194.90434025 280.8915845 191.43195558 280.89860606 C187.78981857 280.90490139 184.14768055 280.90544825 180.50553894 280.90663147 C173.62457512 280.9097267 166.74362738 280.91791547 159.8626706 280.92798096 C152.02217998 280.93919857 144.18168855 280.94466672 136.34119189 280.94967639 C120.22745188 280.96009978 104.113728 280.97766385 88 281 C87.82804076 281.8886163 87.65608152 282.77723261 87.4789114 283.69277668 C86.83239993 287.03361177 86.18586152 290.37444164 85.53930569 293.71526814 C85.26107018 295.15297081 84.98284498 296.59067549 84.70463085 298.0283823 C82.66228692 308.58240274 80.61611847 319.13566732 78.5625 329.6875 C78.2708178 331.18684594 77.97915168 332.686195 77.6875 334.18554688 C77.08876481 337.26352086 76.4899644 340.34148216 75.89111328 343.41943359 C74.57234991 350.1978593 73.25445074 356.97645303 71.93649292 363.7550354 C71.20769797 367.50336394 70.47884608 371.2516814 69.75 375 C69.45833306 376.49999995 69.16666639 377.99999995 68.875 379.5 C65.95833333 394.5 63.04166667 409.5 60.125 424.5 C59.90841484 425.6138784 59.90841484 425.6138784 59.68745422 426.7502594 C59.39595213 428.24939706 59.10443806 429.7485324 58.81291199 431.24766541 C58.08112895 435.01084008 57.34955772 438.7740557 56.6184082 442.53735352 C55.33730828 449.13026186 54.05524917 455.72296582 52.76443481 462.3139801 C52.07100647 465.8549354 51.37891869 469.39615178 50.6875 472.9375 C50.54662964 473.65892181 50.40575928 474.38034363 50.26062012 475.12362671 C48.37728454 484.78122412 46.53409677 494.44584411 44.72265625 504.1171875 C44.52328964 505.18128342 44.32392303 506.24537933 44.11851501 507.34172058 C43.91577469 508.42383316 43.71303436 509.50594574 43.50415039 510.62084961 C38.4808073 537.42880065 33.20285459 564.17909283 27.82182312 590.91732788 C24.09820645 609.43788392 20.45175289 627.97554739 17.20336914 646.58618164 C16.10589634 652.78820732 16.10589634 652.78820732 15 655 C-31.53 655 -78.06 655 -126 655 C-126 650.32261351 -125.97978076 647.0264817 -125.08544922 642.6484375 C-124.78380104 641.14574814 -124.78380104 641.14574814 -124.47605896 639.61270142 C-124.25450638 638.54425995 -124.0329538 637.47581848 -123.8046875 636.375 C-123.57689102 635.24879242 -123.34909454 634.12258484 -123.11439514 632.96224976 C-122.62681741 630.55551076 -122.13619258 628.14938741 -121.64279175 625.74383545 C-120.86709883 621.96147305 -120.09948236 618.17755375 -119.33422852 614.39306641 C-118.33155347 609.43511239 -117.32663278 604.477624 -116.31982422 599.52050781 C-114.82427629 592.14527868 -113.36193028 584.76433206 -111.9375 577.375 C-111.71650635 576.2303125 -111.4955127 575.085625 -111.26782227 573.90625 C-109.75712283 566.03813393 -108.27927271 558.16400997 -106.8046875 550.2890625 C-105.97459199 545.85925598 -105.14382939 541.42957513 -104.3125 537 C-103.99676529 535.31735046 -103.99676529 535.31735046 -103.6746521 533.60070801 C-99.24621079 510.03422521 -94.53980466 486.52627433 -89.80821228 463.01914978 C-87.37701527 450.92635963 -85.03591927 438.81704381 -82.71240234 426.703125 C-81.48742332 420.33558497 -80.24776002 413.97090226 -79.00891113 407.60604858 C-78.56405418 405.320485 -78.11939716 403.03488262 -77.67480469 400.74926758 C-77.08030497 397.69302138 -76.48573773 394.63678834 -75.89111328 391.58056641 C-74.57234991 384.8021407 -73.25445074 378.02354697 -71.93649292 371.2449646 C-71.20769797 367.49663606 -70.47884608 363.7483186 -69.75 360 C-69.45833306 358.50000005 -69.16666639 357.00000005 -68.875 355.5 C-63.625 328.5 -58.375 301.5 -53.125 274.5 C-52.98060989 273.7574144 -52.83621979 273.0148288 -52.68745422 272.2497406 C-52.39595213 270.75060294 -52.10443806 269.2514676 -51.81291199 267.75233459 C-51.08112895 263.98915992 -50.34955772 260.2259443 -49.6184082 256.46264648 C-48.33730828 249.86973814 -47.05524917 243.27703418 -45.76443481 236.6860199 C-45.07100647 233.1450646 -44.37891869 229.60384822 -43.6875 226.0625 C-43.47619446 224.98036728 -43.47619446 224.98036728 -43.26062012 223.87637329 C-41.37728454 214.21877588 -39.53409677 204.55415589 -37.72265625 194.8828125 C-37.52328964 193.81871658 -37.32392303 192.75462067 -37.11851501 191.65827942 C-36.91577469 190.57616684 -36.71303436 189.49405426 -36.50415039 188.37915039 C-31.47682116 161.54992662 -26.19442402 134.77849919 -20.80822754 108.01922607 C-18.37819973 95.93225003 -16.0388157 83.82885344 -13.71679688 71.72070312 C-12.91671965 67.56771369 -12.10780225 63.41650656 -11.296875 59.265625 C-11.14780701 58.50191086 -10.99873901 57.73819672 -10.84515381 56.95133972 C-9.63293878 50.7408788 -9.63293878 50.7408788 -9.0994873 48.01870728 C-5.96709341 32.03058991 -3.00262411 16.01399523 0 0 Z " fill="#000000" transform="translate(1163,227)"/>
<path d="M0 0 C15.77814491 -0.02345525 31.55628503 -0.04104079 47.33444309 -0.05181217 C54.66201425 -0.05694847 61.98957451 -0.06393981 69.31713867 -0.07543945 C75.71063223 -0.08546834 82.10411789 -0.09187277 88.49761909 -0.09408849 C91.87673956 -0.09538179 95.25583747 -0.09837872 98.63495064 -0.10573006 C133.86826441 -0.17387176 133.86826441 -0.17387176 148.375 2.75 C149.25857178 2.924104 150.14214355 3.09820801 151.05249023 3.27758789 C173.4534565 7.8487618 198.05921455 15.22076641 211.62597656 34.99511719 C222.43895231 51.55721419 224.59600953 70.04947452 224.4375 89.4375 C224.43512329 90.21148132 224.43274658 90.98546265 224.43029785 91.78289795 C224.36195092 106.12730154 222.85272476 119.92939887 220 134 C219.75975098 135.25417725 219.75975098 135.25417725 219.51464844 136.53369141 C211.51272996 178.14876423 192.96347665 221.49041364 156.9453125 246.0859375 C138.45766932 257.88367557 117.57571233 265.25703112 96 269 C95.29343262 269.1232666 94.58686523 269.2465332 93.85888672 269.37353516 C91.49099548 269.78116831 89.12128865 270.17513398 86.75 270.5625 C86.0485083 270.67754883 85.3470166 270.79259766 84.62426758 270.91113281 C82.0866182 271.30608456 79.54472776 271.6531864 77 272 C75.83052826 272.16615311 74.66105652 272.33230621 73.45614624 272.50349426 C59.88943437 274.29648978 46.406229 274.25638592 32.7421875 274.1953125 C30.25684728 274.19157341 27.77150556 274.18873068 25.28616333 274.18673706 C18.80576367 274.1791711 12.32545641 274.15958461 5.84509277 274.1373291 C-0.79206254 274.11671745 -7.42922727 274.10770288 -14.06640625 274.09765625 C-27.04430982 274.07633081 -40.02214995 274.04267692 -53 274 C-52.84820809 272.57807769 -52.69462886 271.15634612 -52.54031372 269.73469543 C-52.41231982 268.54707469 -52.41231982 268.54707469 -52.28174019 267.33546162 C-51.88263027 264.02707346 -51.26314204 260.78018032 -50.6171875 257.51171875 C-50.4152327 256.48117371 -50.4152327 256.48117371 -50.209198 255.42980957 C-49.76786954 253.18168775 -49.32144167 250.93461148 -48.875 248.6875 C-48.55724104 247.07404864 -48.23986614 245.46052161 -47.92285156 243.84692383 C-47.26799035 240.51486125 -46.61150227 237.1831249 -45.95410156 233.8515625 C-45.08172107 229.42379936 -44.22155161 224.99377067 -43.3671875 220.5625 C-39.56848692 200.87572955 -35.65067395 181.21378405 -31.70922852 161.55511475 C-28.31379152 144.61605818 -24.96672342 127.66989675 -21.71240234 110.703125 C-20.48733513 104.33512652 -19.24757675 97.96998679 -18.00863647 91.60467529 C-17.56458927 89.32323435 -17.12076069 87.04175098 -16.67700195 84.76025391 C-15.63558924 79.40616781 -14.59385468 74.05214436 -13.55212402 68.69812012 C-12.66052106 64.1156164 -11.76904358 59.53308831 -10.87771606 54.95053101 C-10.58567718 53.44923856 -10.29358381 51.94795672 -10.00143433 50.44668579 C-8.41513643 42.29510992 -6.8331456 34.14273807 -5.26171875 25.98828125 C-4.98316144 24.54402532 -4.70459712 23.09977073 -4.42602539 21.65551758 C-3.90444801 18.95116299 -3.38430546 16.24653783 -2.86499023 13.54174805 C-2.63368408 12.34203369 -2.40237793 11.14231934 -2.1640625 9.90625 C-1.96248535 8.85759766 -1.7609082 7.80894531 -1.55322266 6.72851562 C-1.09405119 4.46386413 -0.56945004 2.23837068 0 0 Z " fill="#777BB3" transform="translate(1793,505)"/>
<path d="M0 0 C15.77814491 -0.02345525 31.55628503 -0.04104079 47.33444309 -0.05181217 C54.66201425 -0.05694847 61.98957451 -0.06393981 69.31713867 -0.07543945 C75.71063223 -0.08546834 82.10411789 -0.09187277 88.49761909 -0.09408849 C91.87673956 -0.09538179 95.25583747 -0.09837872 98.63495064 -0.10573006 C133.86826441 -0.17387176 133.86826441 -0.17387176 148.375 2.75 C149.25857178 2.924104 150.14214355 3.09820801 151.05249023 3.27758789 C174.2723676 8.01586999 198.70325083 15.6999416 212.40625 36.41015625 C222.50253567 52.81662047 224.21952168 69.6265421 224.1875 88.4375 C224.18559662 89.58173431 224.18559662 89.58173431 224.18365479 90.74908447 C224.14808515 101.94999317 224.00722688 112.95469504 222 124 C221.82227051 124.99531738 221.64454102 125.99063477 221.46142578 127.01611328 C213.33937625 171.10262399 196.88392243 217.85270254 158.82543945 244.77099609 C127.33679985 266.31178279 85.20545365 274.24727137 47.58349609 274.11352539 C46.48963593 274.11367142 45.39577576 274.11381744 44.26876831 274.1139679 C40.68697054 274.11327645 37.10522609 274.10552031 33.5234375 274.09765625 C31.02666248 274.09578934 28.52988709 274.09436672 26.03311157 274.09336853 C19.48686701 274.08956487 12.94064491 274.07975309 6.39440918 274.06866455 C-0.29564986 274.05785748 -6.98571592 274.05386099 -13.67578125 274.04882812 C-26.78386371 274.03812878 -39.89193065 274.02127275 -53 274 C-52.50071634 269.16452118 -51.97777964 264.37908814 -51.00366211 259.61181641 C-50.80902878 258.64850906 -50.61439545 257.68520172 -50.41386414 256.69270325 C-50.20381241 255.6726268 -49.99376068 254.65255035 -49.77734375 253.6015625 C-49.32063658 251.34676136 -48.86393091 249.09195991 -48.40722656 246.8371582 C-48.16750122 245.66126129 -47.92777588 244.48536438 -47.68078613 243.27383423 C-43.88652263 224.64757722 -40.1858742 206.00829754 -36.75 187.3125 C-36.11088265 183.8385038 -35.47165427 180.36452814 -34.83203125 176.890625 C-34.6788443 176.0583287 -34.52565735 175.22603241 -34.36782837 174.36851501 C-32.778253 165.75601709 -31.11679186 157.15789694 -29.4375 148.5625 C-29.29453491 147.83068512 -29.15156982 147.09887024 -29.00427246 146.34487915 C-28.29022971 142.69210863 -27.57485224 139.0396011 -26.85888672 135.38720703 C-25.54450409 128.67863253 -24.24208453 121.96773025 -22.93850708 115.25704956 C-22.2094705 111.50460914 -21.4796989 107.75231167 -20.75 104 C-20.45832979 102.50000069 -20.16666313 101.00000069 -19.875 99.5 C-18.125 90.5 -18.125 90.5 -17.68753052 88.25019836 C-17.39574143 86.74954117 -17.10397306 85.24887996 -16.81222534 83.74821472 C-16.08510101 80.00823653 -15.35762207 76.268328 -14.62939453 72.52856445 C-13.29227422 65.65995549 -11.95814074 58.79081958 -10.63677979 51.91915894 C-10.02998997 48.76476746 -9.42118429 45.61076635 -8.81225586 42.45678711 C-8.52985211 40.9911574 -8.24837322 39.52534904 -7.96801758 38.05932617 C-6.23392448 28.99304672 -4.36075422 19.96432627 -2.38916016 10.9465332 C-2.15868484 9.8894944 -1.92820953 8.8324556 -1.69075012 7.74338531 C-1.12783318 5.16211066 -0.564236 2.58098659 0 0 Z " fill="#777BB3" transform="translate(678,505)"/>
<path d="M0 0 C15.77814491 -0.02345525 31.55628503 -0.04104079 47.33444309 -0.05181217 C54.66201425 -0.05694847 61.98957451 -0.06393981 69.31713867 -0.07543945 C75.71063223 -0.08546834 82.10411789 -0.09187277 88.49761909 -0.09408849 C91.87673956 -0.09538179 95.25583747 -0.09837872 98.63495064 -0.10573006 C133.86826441 -0.17387176 133.86826441 -0.17387176 148.375 2.75 C149.25857178 2.924104 150.14214355 3.09820801 151.05249023 3.27758789 C173.4534565 7.8487618 198.05921455 15.22076641 211.62597656 34.99511719 C222.43895231 51.55721419 224.59600953 70.04947452 224.4375 89.4375 C224.43512329 90.21148132 224.43274658 90.98546265 224.43029785 91.78289795 C224.36195092 106.12730154 222.85272476 119.92939887 220 134 C219.75975098 135.25417725 219.75975098 135.25417725 219.51464844 136.53369141 C211.51272996 178.14876423 192.96347665 221.49041364 156.9453125 246.0859375 C138.45766932 257.88367557 117.57571233 265.25703112 96 269 C95.29343262 269.1232666 94.58686523 269.2465332 93.85888672 269.37353516 C91.49099548 269.78116831 89.12128865 270.17513398 86.75 270.5625 C86.0485083 270.67754883 85.3470166 270.79259766 84.62426758 270.91113281 C82.0866182 271.30608456 79.54472776 271.6531864 77 272 C75.83052826 272.16615311 74.66105652 272.33230621 73.45614624 272.50349426 C59.88943437 274.29648978 46.406229 274.25638592 32.7421875 274.1953125 C30.25684728 274.19157341 27.77150556 274.18873068 25.28616333 274.18673706 C18.80576367 274.1791711 12.32545641 274.15958461 5.84509277 274.1373291 C-0.79206254 274.11671745 -7.42922727 274.10770288 -14.06640625 274.09765625 C-27.04430982 274.07633081 -40.02214995 274.04267692 -53 274 C-52.84820809 272.57807769 -52.69462886 271.15634612 -52.54031372 269.73469543 C-52.41231982 268.54707469 -52.41231982 268.54707469 -52.28174019 267.33546162 C-51.88263027 264.02707346 -51.26314204 260.78018032 -50.6171875 257.51171875 C-50.4152327 256.48117371 -50.4152327 256.48117371 -50.209198 255.42980957 C-49.76786954 253.18168775 -49.32144167 250.93461148 -48.875 248.6875 C-48.55724104 247.07404864 -48.23986614 245.46052161 -47.92285156 243.84692383 C-47.26799035 240.51486125 -46.61150227 237.1831249 -45.95410156 233.8515625 C-45.08172107 229.42379936 -44.22155161 224.99377067 -43.3671875 220.5625 C-39.56848692 200.87572955 -35.65067395 181.21378405 -31.70922852 161.55511475 C-28.31379152 144.61605818 -24.96672342 127.66989675 -21.71240234 110.703125 C-20.48733513 104.33512652 -19.24757675 97.96998679 -18.00863647 91.60467529 C-17.56458927 89.32323435 -17.12076069 87.04175098 -16.67700195 84.76025391 C-15.63558924 79.40616781 -14.59385468 74.05214436 -13.55212402 68.69812012 C-12.66052106 64.1156164 -11.76904358 59.53308831 -10.87771606 54.95053101 C-10.58567718 53.44923856 -10.29358381 51.94795672 -10.00143433 50.44668579 C-8.41513643 42.29510992 -6.8331456 34.14273807 -5.26171875 25.98828125 C-4.98316144 24.54402532 -4.70459712 23.09977073 -4.42602539 21.65551758 C-3.90444801 18.95116299 -3.38430546 16.24653783 -2.86499023 13.54174805 C-2.63368408 12.34203369 -2.40237793 11.14231934 -2.1640625 9.90625 C-1.96248535 8.85759766 -1.7609082 7.80894531 -1.55322266 6.72851562 C-1.09405119 4.46386413 -0.56945004 2.23837068 0 0 Z M22 27 C14.70044301 63.14739929 14.70044301 63.14739929 7.8125 99.375 C7.65049103 100.25452332 7.48848206 101.13404663 7.32156372 102.04022217 C7.079366 103.35521698 7.079366 103.35521698 6.83227539 104.69677734 C4.75802735 115.95524665 2.63248814 127.20192849 0.4375 138.4375 C0.22318832 139.53454254 0.22318832 139.53454254 0.00454712 140.65374756 C-0.70958629 144.30697601 -1.42505845 147.9599407 -2.14111328 151.61279297 C-3.45588953 158.3233765 -4.75864763 165.03629796 -6.06259155 171.74899292 C-6.49686242 173.98385329 -6.93157846 176.21862657 -7.36645508 178.45336914 C-8.71929014 185.40590244 -10.07020375 192.35879426 -11.41479492 199.31292725 C-12.04169543 202.55462042 -12.66961577 205.79611571 -13.29760742 209.03759766 C-13.59319825 210.56484352 -13.88830391 212.09218339 -14.18286133 213.61962891 C-14.5945864 215.75448197 -15.00776447 217.88904595 -15.421875 220.0234375 C-15.61753052 221.03383087 -15.61753052 221.03383087 -15.81713867 222.06463623 C-16.9274369 227.7449704 -18.16996922 233.39081599 -19.45800781 239.03369141 C-19.96022005 241.78228543 -20.04071022 244.21831841 -20 247 C-10.86195521 247.0468803 -1.72395346 247.0821461 7.41418648 247.10362434 C11.65995739 247.11394632 15.90564449 247.12788595 20.15136719 247.15087891 C47.63214718 247.29688281 47.63214718 247.29688281 75 245 C76.23862793 244.84853516 77.47725586 244.69707031 78.75341797 244.54101562 C81.80444054 244.13848462 84.83815558 243.68492756 87.875 243.1875 C88.91962402 243.01718262 89.96424805 242.84686523 91.04052734 242.67138672 C99.6901744 241.18771251 107.76517274 239.04041523 116 236 C116.6305127 235.77586426 117.26102539 235.55172852 117.91064453 235.32080078 C142.55995075 226.51614565 160.19658595 210.7018518 173 188 C173.57234375 187.01515625 174.1446875 186.0303125 174.734375 185.015625 C184.5271543 166.95738059 189.9517251 146.04281047 194 126 C194.16226074 125.25459961 194.32452148 124.50919922 194.49169922 123.74121094 C197.04772535 111.76033301 197.33280021 99.76536063 197.4375 87.5625 C197.45582382 86.40450394 197.45582382 86.40450394 197.47451782 85.22311401 C197.65913366 71.37729443 195.85049012 58.26798511 187 47 C184.53617838 44.58927798 181.94978131 42.77201019 179 41 C178.34128906 40.58363281 177.68257812 40.16726563 177.00390625 39.73828125 C164.81441001 32.85045539 150.06914213 29.95285128 136.31860352 28.33862305 C134.69956666 28.14796154 134.69956666 28.14796154 133.047822 27.9534483 C121.51171667 26.69513645 110.05588636 26.61894175 98.46484375 26.70703125 C96.23613272 26.71264961 94.0074179 26.71690905 91.77870178 26.71989441 C86.00689861 26.73116726 80.23533407 26.76047565 74.46362305 26.79400635 C68.53632838 26.82509356 62.60899389 26.83848098 56.68164062 26.85351562 C45.12099081 26.88536836 33.5605155 26.93634242 22 27 Z " fill="#FDFDFD" transform="translate(1793,505)"/>
<path d="M0 0 C15.77814491 -0.02345525 31.55628503 -0.04104079 47.33444309 -0.05181217 C54.66201425 -0.05694847 61.98957451 -0.06393981 69.31713867 -0.07543945 C75.71063223 -0.08546834 82.10411789 -0.09187277 88.49761909 -0.09408849 C91.87673956 -0.09538179 95.25583747 -0.09837872 98.63495064 -0.10573006 C133.86826441 -0.17387176 133.86826441 -0.17387176 148.375 2.75 C149.25857178 2.924104 150.14214355 3.09820801 151.05249023 3.27758789 C174.2723676 8.01586999 198.70325083 15.6999416 212.40625 36.41015625 C222.50253567 52.81662047 224.21952168 69.6265421 224.1875 88.4375 C224.18559662 89.58173431 224.18559662 89.58173431 224.18365479 90.74908447 C224.14808515 101.94999317 224.00722688 112.95469504 222 124 C221.82227051 124.99531738 221.64454102 125.99063477 221.46142578 127.01611328 C213.33937625 171.10262399 196.88392243 217.85270254 158.82543945 244.77099609 C127.33679985 266.31178279 85.20545365 274.24727137 47.58349609 274.11352539 C46.48963593 274.11367142 45.39577576 274.11381744 44.26876831 274.1139679 C40.68697054 274.11327645 37.10522609 274.10552031 33.5234375 274.09765625 C31.02666248 274.09578934 28.52988709 274.09436672 26.03311157 274.09336853 C19.48686701 274.08956487 12.94064491 274.07975309 6.39440918 274.06866455 C-0.29564986 274.05785748 -6.98571592 274.05386099 -13.67578125 274.04882812 C-26.78386371 274.03812878 -39.89193065 274.02127275 -53 274 C-52.50071634 269.16452118 -51.97777964 264.37908814 -51.00366211 259.61181641 C-50.80902878 258.64850906 -50.61439545 257.68520172 -50.41386414 256.69270325 C-50.20381241 255.6726268 -49.99376068 254.65255035 -49.77734375 253.6015625 C-49.32063658 251.34676136 -48.86393091 249.09195991 -48.40722656 246.8371582 C-48.16750122 245.66126129 -47.92777588 244.48536438 -47.68078613 243.27383423 C-43.88652263 224.64757722 -40.1858742 206.00829754 -36.75 187.3125 C-36.11088265 183.8385038 -35.47165427 180.36452814 -34.83203125 176.890625 C-34.6788443 176.0583287 -34.52565735 175.22603241 -34.36782837 174.36851501 C-32.778253 165.75601709 -31.11679186 157.15789694 -29.4375 148.5625 C-29.29453491 147.83068512 -29.15156982 147.09887024 -29.00427246 146.34487915 C-28.29022971 142.69210863 -27.57485224 139.0396011 -26.85888672 135.38720703 C-25.54450409 128.67863253 -24.24208453 121.96773025 -22.93850708 115.25704956 C-22.2094705 111.50460914 -21.4796989 107.75231167 -20.75 104 C-20.45832979 102.50000069 -20.16666313 101.00000069 -19.875 99.5 C-18.125 90.5 -18.125 90.5 -17.68753052 88.25019836 C-17.39574143 86.74954117 -17.10397306 85.24887996 -16.81222534 83.74821472 C-16.08510101 80.00823653 -15.35762207 76.268328 -14.62939453 72.52856445 C-13.29227422 65.65995549 -11.95814074 58.79081958 -10.63677979 51.91915894 C-10.02998997 48.76476746 -9.42118429 45.61076635 -8.81225586 42.45678711 C-8.52985211 40.9911574 -8.24837322 39.52534904 -7.96801758 38.05932617 C-6.23392448 28.99304672 -4.36075422 19.96432627 -2.38916016 10.9465332 C-2.15868484 9.8894944 -1.92820953 8.8324556 -1.69075012 7.74338531 C-1.12783318 5.16211066 -0.564236 2.58098659 0 0 Z M22 27 C12.19095568 75.81420812 12.19095568 75.81420812 2.8046875 124.7109375 C1.97456899 129.14073969 1.14378682 133.5704169 0.3125 138 C0.10267487 139.11844299 -0.10715027 140.23688599 -0.32333374 141.38922119 C-4.14297953 161.72049245 -8.15116797 182.0113243 -12.24487305 202.2890625 C-13.50369043 208.52463009 -14.75687685 214.76128354 -16 221 C-16.30170105 222.51400391 -16.30170105 222.51400391 -16.60949707 224.05859375 C-17.18559294 226.96504032 -17.75433115 229.8728188 -18.3203125 232.78125 C-18.57698196 234.07391785 -18.57698196 234.07391785 -18.83883667 235.3927002 C-18.99272858 236.19187866 -19.14662048 236.99105713 -19.30517578 237.81445312 C-19.44013458 238.50575317 -19.57509338 239.19705322 -19.71414185 239.90930176 C-20.03998479 242.29243921 -20.0466077 244.59762356 -20 247 C-10.86195521 247.0468803 -1.72395346 247.0821461 7.41418648 247.10362434 C11.65995739 247.11394632 15.90564449 247.12788595 20.15136719 247.15087891 C47.63214718 247.29688281 47.63214718 247.29688281 75 245 C76.23862793 244.84853516 77.47725586 244.69707031 78.75341797 244.54101562 C81.80445024 244.13848334 84.83817284 243.68509872 87.875 243.1875 C88.92107422 243.01645752 89.96714844 242.84541504 91.04492188 242.66918945 C99.67825953 241.18525133 107.80123934 239.09767943 116 236 C116.70592285 235.73815918 117.4118457 235.47631836 118.13916016 235.20654297 C138.47792527 227.56666874 154.69787322 215.98210217 167 198 C167.69738281 196.99453125 168.39476562 195.9890625 169.11328125 194.953125 C175.05595751 185.86025337 179.05489584 176.08168715 183 166 C183.474375 164.81535156 183.94875 163.63070312 184.4375 162.41015625 C188.32430334 152.19515122 190.72383752 141.66534114 193 131 C193.20044922 130.11151367 193.40089844 129.22302734 193.60742188 128.30761719 C196.59196299 114.82825529 197.4117704 101.57017439 197.5 87.8125 C197.51044342 87.02367432 197.52088684 86.23484863 197.53164673 85.42211914 C197.6756631 71.51973829 195.88723073 58.31476134 187 47 C184.53641446 44.58950898 181.95467809 42.76430419 179 41 C178.28328125 40.57203125 177.5665625 40.1440625 176.828125 39.703125 C153.38255384 26.95754605 125.66295884 26.83875398 99.734375 26.90234375 C97.48708121 26.90421175 95.23978702 26.90563385 92.99249268 26.90663147 C87.1137375 26.9104266 81.23500752 26.92023083 75.35626221 26.93133545 C69.34298035 26.94161456 63.32969438 26.94614295 57.31640625 26.95117188 C45.54425984 26.96185613 33.77213203 26.97889596 22 27 Z " fill="#FDFDFD" transform="translate(678,505)"/>
</svg>
